<svg xmlns="http://www.w3.org/2000/svg" xmlns:xlink="http://www.w3.org/1999/xlink" width="100" zoomAndPan="magnify" viewBox="0 0 75 74.999997" height="100" preserveAspectRatio="xMidYMid meet" version="1.0"><defs><clipPath id="f1f2e5463b"><path d="M 4.84375 7.78125 L 70.09375 7.78125 L 70.09375 67.03125 L 4.84375 67.03125 Z M 4.84375 7.78125 " clip-rule="nonzero"/></clipPath></defs><path fill="#f2a625" d="M 68.003906 9.0625 L 49.167969 9.0625 C 48.6875 9.0625 48.296875 9.457031 48.296875 9.9375 L 48.296875 23.214844 C 48.296875 23.695312 48.6875 24.085938 49.167969 24.085938 L 52.800781 24.085938 C 53.011719 24.085938 53.183594 24.257812 53.183594 24.46875 L 53.183594 29.859375 L 57.613281 24.234375 C 57.683594 24.140625 57.796875 24.085938 57.914062 24.085938 L 68.003906 24.085938 C 68.484375 24.085938 68.875 23.695312 68.875 23.214844 L 68.875 9.933594 C 68.875 9.453125 68.484375 9.0625 68.003906 9.0625 Z M 50.355469 20.5 C 50.355469 20.289062 50.527344 20.117188 50.738281 20.117188 L 66.433594 20.117188 C 66.644531 20.117188 66.816406 20.289062 66.816406 20.5 C 66.816406 20.710938 66.644531 20.882812 66.433594 20.882812 L 50.738281 20.882812 C 50.527344 20.882812 50.355469 20.710938 50.355469 20.5 Z M 58.585938 13.03125 L 50.738281 13.03125 C 50.527344 13.03125 50.355469 12.859375 50.355469 12.648438 C 50.355469 12.4375 50.527344 12.265625 50.738281 12.265625 L 58.585938 12.265625 C 58.796875 12.265625 58.96875 12.4375 58.96875 12.648438 C 58.96875 12.859375 58.796875 13.03125 58.585938 13.03125 Z M 50.738281 16.191406 L 66.433594 16.191406 C 66.644531 16.191406 66.816406 16.363281 66.816406 16.574219 C 66.816406 16.785156 66.644531 16.957031 66.433594 16.957031 L 50.738281 16.957031 C 50.527344 16.957031 50.355469 16.785156 50.355469 16.574219 C 50.355469 16.363281 50.527344 16.191406 50.738281 16.191406 Z M 50.738281 16.191406 " fill-opacity="1" fill-rule="nonzero"/><path fill="#f2a625" d="M 55.824219 46.613281 C 55.117188 48.203125 54.386719 49.851562 53.691406 51.304688 C 53.640625 51.40625 53.554688 51.480469 53.445312 51.511719 C 53.410156 51.519531 53.378906 51.523438 53.34375 51.523438 C 53.265625 51.523438 53.195312 51.5 53.128906 51.457031 C 52.355469 50.9375 51.617188 50.433594 50.90625 49.949219 L 50.878906 49.925781 C 47.6875 47.742188 44.929688 45.855469 41.578125 44.558594 L 41.132812 44.386719 L 38.050781 50.964844 C 38.007812 51.058594 37.925781 51.132812 37.820312 51.164062 C 37.785156 51.179688 37.746094 51.183594 37.707031 51.183594 C 37.640625 51.183594 37.578125 51.167969 37.519531 51.136719 L 36.464844 50.550781 L 35.269531 52.949219 L 37.011719 65.9375 L 45.433594 65.9375 L 45.425781 65.417969 C 45.402344 64.3125 45.390625 63 45.378906 61.613281 L 45.375 61.3125 C 45.359375 59.308594 45.339844 57.238281 45.285156 55.816406 L 45.273438 55.539062 L 43.054688 54.210938 C 42.964844 54.160156 42.902344 54.078125 42.878906 53.976562 C 42.855469 53.878906 42.867188 53.773438 42.921875 53.6875 C 42.992188 53.570312 43.113281 53.5 43.25 53.5 C 43.320312 53.5 43.386719 53.519531 43.449219 53.554688 L 45.777344 54.945312 L 45.789062 54.957031 L 45.871094 55 L 52.722656 59.101562 C 53.296875 59.429688 53.859375 59.597656 54.398438 59.597656 C 54.683594 59.597656 54.957031 59.550781 55.214844 59.457031 C 56 59.167969 56.632812 58.445312 57 57.421875 C 57 57.414062 57.003906 57.40625 57.007812 57.398438 L 62.015625 45.089844 L 56.503906 45.089844 C 56.503906 45.089844 55.925781 46.390625 55.824219 46.609375 Z M 55.824219 46.613281 " fill-opacity="1" fill-rule="nonzero"/><path fill="#f2a625" d="M 22.828125 26.171875 L 23.480469 25.984375 C 23.703125 25.917969 23.914062 25.878906 24.128906 25.859375 L 24.511719 25.824219 L 24.582031 25.445312 C 24.6875 24.910156 24.789062 24.402344 24.902344 23.882812 C 24.933594 23.734375 25.054688 23.617188 25.207031 23.589844 C 27.5 23.15625 28.753906 22.742188 30.351562 20.796875 C 30.425781 20.710938 30.53125 20.660156 30.648438 20.65625 C 30.757812 20.65625 30.863281 20.703125 30.9375 20.789062 C 32.730469 22.828125 35.160156 23.820312 38.363281 23.820312 C 39.246094 23.820312 40.203125 23.742188 41.207031 23.585938 C 41.226562 23.585938 41.25 23.582031 41.269531 23.582031 C 41.445312 23.582031 41.601562 23.710938 41.640625 23.882812 C 41.757812 24.425781 41.867188 24.949219 41.960938 25.445312 L 42.03125 25.828125 L 42.417969 25.859375 C 42.636719 25.878906 42.851562 25.917969 43.0625 25.980469 L 43.710938 26.167969 L 43.710938 22.394531 C 43.710938 20.40625 42.855469 18.542969 41.421875 17.402344 C 40.492188 16.667969 39.378906 16.28125 38.203125 16.28125 C 37.78125 16.28125 37.351562 16.332031 36.929688 16.429688 C 36.683594 16.488281 36.425781 16.519531 36.160156 16.519531 C 35.0625 16.519531 34.050781 16.011719 33.449219 15.707031 C 32.324219 15.144531 31.171875 14.855469 30.027344 14.855469 C 28.761719 14.855469 27.558594 15.203125 26.445312 15.886719 C 24.214844 17.265625 22.828125 19.757812 22.828125 22.394531 Z M 22.828125 26.171875 " fill-opacity="1" fill-rule="nonzero"/><path fill="#f2a625" d="M 10.355469 45.765625 C 10.375 45.984375 10.382812 46.203125 10.382812 46.417969 C 10.382812 47.449219 11.222656 48.289062 12.25 48.289062 C 13.28125 48.289062 14.121094 47.453125 14.121094 46.417969 C 14.121094 46.199219 14.132812 45.980469 14.152344 45.765625 L 14.207031 45.207031 L 10.304688 45.207031 Z M 10.355469 45.765625 " fill-opacity="1" fill-rule="nonzero"/><path fill="#f2a625" d="M 30.09375 50.550781 L 29.039062 51.136719 C 28.980469 51.167969 28.914062 51.183594 28.851562 51.183594 C 28.8125 51.183594 28.773438 51.179688 28.730469 51.164062 C 28.632812 51.132812 28.550781 51.058594 28.503906 50.960938 L 25.402344 44.34375 L 24.957031 44.519531 C 16.90625 47.691406 16.824219 54.273438 16.714844 62.605469 L 16.714844 62.660156 C 16.703125 63.554688 16.691406 64.480469 16.667969 65.414062 L 16.65625 65.9375 L 21.773438 65.9375 L 21.785156 65.441406 C 21.8125 64.464844 21.824219 63.492188 21.835938 62.578125 L 21.835938 62.476562 C 21.859375 60.796875 21.878906 59.210938 21.96875 57.675781 C 21.980469 57.472656 22.148438 57.316406 22.351562 57.316406 L 22.371094 57.316406 C 22.582031 57.328125 22.746094 57.511719 22.734375 57.71875 C 22.644531 59.261719 22.625 60.867188 22.601562 62.570312 L 22.601562 62.589844 C 22.589844 63.535156 22.578125 64.460938 22.550781 65.417969 L 22.539062 65.9375 L 29.542969 65.9375 L 31.289062 52.949219 Z M 30.09375 50.550781 " fill-opacity="1" fill-rule="nonzero"/><g clip-path="url(#f1f2e5463b)"><path fill="#bd7803" d="M 12.25 29.085938 C 8.167969 29.085938 4.84375 32.410156 4.84375 36.496094 C 4.84375 38.964844 6.066406 40.542969 7.140625 41.933594 C 8.199219 43.300781 9.109375 44.476562 9.109375 46.421875 C 9.109375 48.15625 10.519531 49.566406 12.25 49.566406 C 13.984375 49.566406 15.398438 48.15625 15.398438 46.421875 C 15.398438 44.476562 16.308594 43.300781 17.363281 41.933594 C 18.441406 40.542969 19.664062 38.960938 19.664062 36.496094 C 19.664062 32.410156 16.339844 29.085938 12.25 29.085938 Z M 13.609375 46.417969 C 13.609375 47.167969 13 47.777344 12.25 47.777344 C 11.5 47.777344 10.894531 47.167969 10.894531 46.417969 C 10.894531 46.175781 10.882812 45.945312 10.863281 45.71875 L 13.644531 45.71875 C 13.621094 45.945312 13.613281 46.179688 13.613281 46.417969 Z M 15.953125 40.84375 C 15.261719 41.734375 14.511719 42.703125 14.054688 43.929688 L 13.144531 43.929688 L 13.144531 38.410156 C 14.261719 38.035156 15.066406 36.980469 15.066406 35.742188 C 15.066406 35.246094 14.664062 34.847656 14.171875 34.847656 C 13.675781 34.847656 13.277344 35.246094 13.277344 35.742188 C 13.277344 36.308594 12.816406 36.769531 12.25 36.769531 C 11.683594 36.769531 11.226562 36.308594 11.226562 35.742188 C 11.226562 35.246094 10.828125 34.847656 10.335938 34.847656 C 9.839844 34.847656 9.441406 35.246094 9.441406 35.742188 C 9.441406 36.980469 10.246094 38.035156 11.359375 38.40625 L 11.359375 43.929688 L 10.453125 43.929688 C 9.992188 42.703125 9.246094 41.734375 8.554688 40.84375 C 7.519531 39.507812 6.628906 38.355469 6.628906 36.496094 C 6.628906 33.394531 9.152344 30.871094 12.25 30.871094 C 15.351562 30.871094 17.878906 33.394531 17.878906 36.496094 C 17.878906 38.351562 16.984375 39.507812 15.953125 40.84375 Z M 66.433594 15.679688 L 50.738281 15.679688 C 50.242188 15.679688 49.84375 16.082031 49.84375 16.574219 C 49.84375 17.066406 50.242188 17.46875 50.738281 17.46875 L 66.433594 17.46875 C 66.925781 17.46875 67.328125 17.070312 67.328125 16.574219 C 67.328125 16.082031 66.925781 15.679688 66.433594 15.679688 Z M 66.433594 19.609375 L 50.738281 19.609375 C 50.242188 19.609375 49.84375 20.007812 49.84375 20.503906 C 49.84375 20.996094 50.242188 21.394531 50.738281 21.394531 L 66.433594 21.394531 C 66.925781 21.394531 67.328125 20.996094 67.328125 20.503906 C 67.328125 20.007812 66.925781 19.609375 66.433594 19.609375 Z M 58.585938 11.753906 L 50.738281 11.753906 C 50.246094 11.753906 49.84375 12.15625 49.84375 12.648438 C 49.84375 13.140625 50.246094 13.542969 50.738281 13.542969 L 58.585938 13.542969 C 59.078125 13.542969 59.476562 13.140625 59.476562 12.648438 C 59.476562 12.15625 59.078125 11.753906 58.585938 11.753906 Z M 58.585938 11.753906 L 50.738281 11.753906 C 50.246094 11.753906 49.84375 12.15625 49.84375 12.648438 C 49.84375 13.140625 50.246094 13.542969 50.738281 13.542969 L 58.585938 13.542969 C 59.078125 13.542969 59.476562 13.140625 59.476562 12.648438 C 59.476562 12.15625 59.078125 11.753906 58.585938 11.753906 Z M 66.433594 19.609375 L 50.738281 19.609375 C 50.242188 19.609375 49.84375 20.007812 49.84375 20.503906 C 49.84375 20.996094 50.242188 21.394531 50.738281 21.394531 L 66.433594 21.394531 C 66.925781 21.394531 67.328125 20.996094 67.328125 20.503906 C 67.328125 20.007812 66.925781 19.609375 66.433594 19.609375 Z M 66.433594 15.679688 L 50.738281 15.679688 C 50.242188 15.679688 49.84375 16.082031 49.84375 16.574219 C 49.84375 17.066406 50.242188 17.46875 50.738281 17.46875 L 66.433594 17.46875 C 66.925781 17.46875 67.328125 17.070312 67.328125 16.574219 C 67.328125 16.082031 66.925781 15.679688 66.433594 15.679688 Z M 66.433594 15.679688 L 50.738281 15.679688 C 50.242188 15.679688 49.84375 16.082031 49.84375 16.574219 C 49.84375 17.066406 50.242188 17.46875 50.738281 17.46875 L 66.433594 17.46875 C 66.925781 17.46875 67.328125 17.070312 67.328125 16.574219 C 67.328125 16.082031 66.925781 15.679688 66.433594 15.679688 Z M 66.433594 19.609375 L 50.738281 19.609375 C 50.242188 19.609375 49.84375 20.007812 49.84375 20.503906 C 49.84375 20.996094 50.242188 21.394531 50.738281 21.394531 L 66.433594 21.394531 C 66.925781 21.394531 67.328125 20.996094 67.328125 20.503906 C 67.328125 20.007812 66.925781 19.609375 66.433594 19.609375 Z M 58.585938 11.753906 L 50.738281 11.753906 C 50.246094 11.753906 49.84375 12.15625 49.84375 12.648438 C 49.84375 13.140625 50.246094 13.542969 50.738281 13.542969 L 58.585938 13.542969 C 59.078125 13.542969 59.476562 13.140625 59.476562 12.648438 C 59.476562 12.15625 59.078125 11.753906 58.585938 11.753906 Z M 58.585938 11.753906 L 50.738281 11.753906 C 50.246094 11.753906 49.84375 12.15625 49.84375 12.648438 C 49.84375 13.140625 50.246094 13.542969 50.738281 13.542969 L 58.585938 13.542969 C 59.078125 13.542969 59.476562 13.140625 59.476562 12.648438 C 59.476562 12.15625 59.078125 11.753906 58.585938 11.753906 Z M 66.433594 19.609375 L 50.738281 19.609375 C 50.242188 19.609375 49.84375 20.007812 49.84375 20.503906 C 49.84375 20.996094 50.242188 21.394531 50.738281 21.394531 L 66.433594 21.394531 C 66.925781 21.394531 67.328125 20.996094 67.328125 20.503906 C 67.328125 20.007812 66.925781 19.609375 66.433594 19.609375 Z M 66.433594 15.679688 L 50.738281 15.679688 C 50.242188 15.679688 49.84375 16.082031 49.84375 16.574219 C 49.84375 17.066406 50.242188 17.46875 50.738281 17.46875 L 66.433594 17.46875 C 66.925781 17.46875 67.328125 17.070312 67.328125 16.574219 C 67.328125 16.082031 66.925781 15.679688 66.433594 15.679688 Z M 50.738281 17.46875 L 66.433594 17.46875 C 66.929688 17.46875 67.328125 17.066406 67.328125 16.574219 C 67.328125 16.078125 66.929688 15.679688 66.433594 15.679688 L 50.738281 15.679688 C 50.246094 15.679688 49.84375 16.082031 49.84375 16.574219 C 49.84375 17.066406 50.246094 17.46875 50.738281 17.46875 Z M 66.433594 19.609375 L 50.738281 19.609375 C 50.242188 19.609375 49.84375 20.007812 49.84375 20.503906 C 49.84375 20.996094 50.242188 21.394531 50.738281 21.394531 L 66.433594 21.394531 C 66.925781 21.394531 67.328125 20.996094 67.328125 20.503906 C 67.328125 20.007812 66.925781 19.609375 66.433594 19.609375 Z M 50.738281 13.539062 L 58.585938 13.539062 C 59.078125 13.539062 59.476562 13.140625 59.476562 12.648438 C 59.476562 12.152344 59.078125 11.753906 58.585938 11.753906 L 50.738281 11.753906 C 50.246094 11.753906 49.84375 12.152344 49.84375 12.648438 C 49.84375 13.140625 50.246094 13.539062 50.738281 13.539062 Z M 68.003906 7.789062 L 49.167969 7.789062 C 47.984375 7.789062 47.019531 8.75 47.019531 9.9375 L 47.019531 23.214844 C 47.019531 24.398438 47.984375 25.363281 49.167969 25.363281 L 51.910156 25.363281 L 51.910156 30.964844 C 51.910156 31.347656 52.152344 31.6875 52.507812 31.808594 C 52.605469 31.84375 52.703125 31.859375 52.800781 31.859375 C 53.070312 31.859375 53.332031 31.738281 53.503906 31.515625 L 58.347656 25.363281 L 68.003906 25.363281 C 69.1875 25.363281 70.152344 24.398438 70.152344 23.210938 L 70.152344 9.933594 C 70.152344 8.75 69.191406 7.785156 68.003906 7.785156 Z M 68.367188 23.214844 C 68.367188 23.410156 68.199219 23.574219 68.003906 23.574219 L 57.914062 23.574219 C 57.640625 23.574219 57.382812 23.703125 57.214844 23.914062 L 53.695312 28.386719 L 53.695312 24.46875 C 53.695312 23.976562 53.296875 23.574219 52.800781 23.574219 L 49.167969 23.574219 C 48.972656 23.574219 48.808594 23.410156 48.808594 23.214844 L 48.808594 9.933594 C 48.808594 9.738281 48.972656 9.574219 49.167969 9.574219 L 68.003906 9.574219 C 68.199219 9.574219 68.367188 9.738281 68.367188 9.933594 Z M 66.433594 15.679688 L 50.738281 15.679688 C 50.242188 15.679688 49.84375 16.082031 49.84375 16.574219 C 49.84375 17.066406 50.242188 17.46875 50.738281 17.46875 L 66.433594 17.46875 C 66.925781 17.46875 67.328125 17.070312 67.328125 16.574219 C 67.328125 16.082031 66.925781 15.679688 66.433594 15.679688 Z M 66.433594 19.609375 L 50.738281 19.609375 C 50.242188 19.609375 49.84375 20.007812 49.84375 20.503906 C 49.84375 20.996094 50.242188 21.394531 50.738281 21.394531 L 66.433594 21.394531 C 66.925781 21.394531 67.328125 20.996094 67.328125 20.503906 C 67.328125 20.007812 66.925781 19.609375 66.433594 19.609375 Z M 50.738281 13.539062 L 58.585938 13.539062 C 59.078125 13.539062 59.476562 13.140625 59.476562 12.648438 C 59.476562 12.152344 59.078125 11.753906 58.585938 11.753906 L 50.738281 11.753906 C 50.246094 11.753906 49.84375 12.152344 49.84375 12.648438 C 49.84375 13.140625 50.246094 13.539062 50.738281 13.539062 Z M 58.585938 11.753906 L 50.738281 11.753906 C 50.246094 11.753906 49.84375 12.15625 49.84375 12.648438 C 49.84375 13.140625 50.246094 13.542969 50.738281 13.542969 L 58.585938 13.542969 C 59.078125 13.542969 59.476562 13.140625 59.476562 12.648438 C 59.476562 12.15625 59.078125 11.753906 58.585938 11.753906 Z M 66.433594 19.609375 L 50.738281 19.609375 C 50.242188 19.609375 49.84375 20.007812 49.84375 20.503906 C 49.84375 20.996094 50.242188 21.394531 50.738281 21.394531 L 66.433594 21.394531 C 66.925781 21.394531 67.328125 20.996094 67.328125 20.503906 C 67.328125 20.007812 66.925781 19.609375 66.433594 19.609375 Z M 66.433594 15.679688 L 50.738281 15.679688 C 50.242188 15.679688 49.84375 16.082031 49.84375 16.574219 C 49.84375 17.066406 50.242188 17.46875 50.738281 17.46875 L 66.433594 17.46875 C 66.925781 17.46875 67.328125 17.070312 67.328125 16.574219 C 67.328125 16.082031 66.925781 15.679688 66.433594 15.679688 Z M 66.433594 15.679688 L 50.738281 15.679688 C 50.242188 15.679688 49.84375 16.082031 49.84375 16.574219 C 49.84375 17.066406 50.242188 17.46875 50.738281 17.46875 L 66.433594 17.46875 C 66.925781 17.46875 67.328125 17.070312 67.328125 16.574219 C 67.328125 16.082031 66.925781 15.679688 66.433594 15.679688 Z M 66.433594 19.609375 L 50.738281 19.609375 C 50.242188 19.609375 49.84375 20.007812 49.84375 20.503906 C 49.84375 20.996094 50.242188 21.394531 50.738281 21.394531 L 66.433594 21.394531 C 66.925781 21.394531 67.328125 20.996094 67.328125 20.503906 C 67.328125 20.007812 66.925781 19.609375 66.433594 19.609375 Z M 58.585938 11.753906 L 50.738281 11.753906 C 50.246094 11.753906 49.84375 12.15625 49.84375 12.648438 C 49.84375 13.140625 50.246094 13.542969 50.738281 13.542969 L 58.585938 13.542969 C 59.078125 13.542969 59.476562 13.140625 59.476562 12.648438 C 59.476562 12.15625 59.078125 11.753906 58.585938 11.753906 Z M 58.585938 11.753906 L 50.738281 11.753906 C 50.246094 11.753906 49.84375 12.15625 49.84375 12.648438 C 49.84375 13.140625 50.246094 13.542969 50.738281 13.542969 L 58.585938 13.542969 C 59.078125 13.542969 59.476562 13.140625 59.476562 12.648438 C 59.476562 12.15625 59.078125 11.753906 58.585938 11.753906 Z M 66.433594 19.609375 L 50.738281 19.609375 C 50.242188 19.609375 49.84375 20.007812 49.84375 20.503906 C 49.84375 20.996094 50.242188 21.394531 50.738281 21.394531 L 66.433594 21.394531 C 66.925781 21.394531 67.328125 20.996094 67.328125 20.503906 C 67.328125 20.007812 66.925781 19.609375 66.433594 19.609375 Z M 66.433594 15.679688 L 50.738281 15.679688 C 50.242188 15.679688 49.84375 16.082031 49.84375 16.574219 C 49.84375 17.066406 50.242188 17.46875 50.738281 17.46875 L 66.433594 17.46875 C 66.925781 17.46875 67.328125 17.070312 67.328125 16.574219 C 67.328125 16.082031 66.925781 15.679688 66.433594 15.679688 Z M 66.433594 15.679688 L 50.738281 15.679688 C 50.242188 15.679688 49.84375 16.082031 49.84375 16.574219 C 49.84375 17.066406 50.242188 17.46875 50.738281 17.46875 L 66.433594 17.46875 C 66.925781 17.46875 67.328125 17.070312 67.328125 16.574219 C 67.328125 16.082031 66.925781 15.679688 66.433594 15.679688 Z M 66.433594 19.609375 L 50.738281 19.609375 C 50.242188 19.609375 49.84375 20.007812 49.84375 20.503906 C 49.84375 20.996094 50.242188 21.394531 50.738281 21.394531 L 66.433594 21.394531 C 66.925781 21.394531 67.328125 20.996094 67.328125 20.503906 C 67.328125 20.007812 66.925781 19.609375 66.433594 19.609375 Z M 58.585938 11.753906 L 50.738281 11.753906 C 50.246094 11.753906 49.84375 12.15625 49.84375 12.648438 C 49.84375 13.140625 50.246094 13.542969 50.738281 13.542969 L 58.585938 13.542969 C 59.078125 13.542969 59.476562 13.140625 59.476562 12.648438 C 59.476562 12.15625 59.078125 11.753906 58.585938 11.753906 Z M 66.433594 15.679688 L 50.738281 15.679688 C 50.242188 15.679688 49.84375 16.082031 49.84375 16.574219 C 49.84375 17.066406 50.242188 17.46875 50.738281 17.46875 L 66.433594 17.46875 C 66.925781 17.46875 67.328125 17.070312 67.328125 16.574219 C 67.328125 16.082031 66.925781 15.679688 66.433594 15.679688 Z M 8.457031 28.160156 L 8.0625 27.476562 C 7.816406 27.050781 7.269531 26.902344 6.839844 27.148438 C 6.414062 27.394531 6.265625 27.941406 6.511719 28.367188 L 6.90625 29.050781 C 7.070312 29.339844 7.371094 29.5 7.683594 29.5 C 7.832031 29.5 7.984375 29.460938 8.128906 29.378906 C 8.554688 29.132812 8.699219 28.585938 8.457031 28.160156 Z M 17.667969 27.035156 C 17.238281 26.789062 16.691406 26.933594 16.445312 27.359375 L 15.949219 28.21875 C 15.703125 28.644531 15.847656 29.191406 16.273438 29.4375 C 16.417969 29.519531 16.570312 29.558594 16.722656 29.558594 C 17.03125 29.558594 17.332031 29.398438 17.496094 29.113281 L 17.992188 28.253906 C 18.238281 27.828125 18.09375 27.28125 17.667969 27.035156 Z M 12.222656 25.660156 C 11.726562 25.660156 11.328125 26.0625 11.328125 26.554688 L 11.328125 27.425781 C 11.328125 27.921875 11.726562 28.320312 12.222656 28.320312 C 12.714844 28.320312 13.117188 27.921875 13.117188 27.425781 L 13.117188 26.554688 C 13.117188 26.0625 12.714844 25.660156 12.222656 25.660156 Z M 58.585938 11.753906 L 50.738281 11.753906 C 50.246094 11.753906 49.84375 12.15625 49.84375 12.648438 C 49.84375 13.140625 50.246094 13.542969 50.738281 13.542969 L 58.585938 13.542969 C 59.078125 13.542969 59.476562 13.140625 59.476562 12.648438 C 59.476562 12.15625 59.078125 11.753906 58.585938 11.753906 Z M 66.433594 19.609375 L 50.738281 19.609375 C 50.242188 19.609375 49.84375 20.007812 49.84375 20.503906 C 49.84375 20.996094 50.242188 21.394531 50.738281 21.394531 L 66.433594 21.394531 C 66.925781 21.394531 67.328125 20.996094 67.328125 20.503906 C 67.328125 20.007812 66.925781 19.609375 66.433594 19.609375 Z M 68.285156 33.996094 C 67.648438 33.617188 66.867188 33.648438 66.25 34.082031 L 63.316406 36.121094 L 63.386719 35.460938 C 63.453125 34.773438 62.863281 34.238281 62.289062 34.035156 C 61.5625 33.777344 60.84375 33.992188 60.449219 34.585938 C 58.714844 37.1875 57 40.855469 55.4375 44.34375 C 55.433594 44.351562 55.429688 44.363281 55.425781 44.371094 C 55.164062 44.949219 54.910156 45.527344 54.660156 46.089844 C 54.074219 47.402344 53.515625 48.660156 52.980469 49.816406 C 52.507812 49.496094 52.046875 49.179688 51.597656 48.871094 C 47.21875 45.875 43.726562 43.480469 38.402344 42.25 L 38.402344 41.402344 C 38.6875 41.15625 38.972656 40.890625 39.246094 40.605469 C 40.867188 38.914062 42.109375 36.695312 42.570312 34.667969 C 42.6875 34.152344 42.796875 33.632812 42.878906 33.089844 C 43.984375 32.867188 44.953125 32.179688 45.515625 31.183594 C 46.378906 29.664062 46.113281 27.808594 44.988281 26.589844 L 44.988281 22.394531 C 44.988281 20.019531 43.949219 17.78125 42.210938 16.402344 C 40.625 15.144531 38.644531 14.714844 36.632812 15.1875 C 35.769531 15.390625 34.867188 14.992188 34.019531 14.566406 C 31.261719 13.183594 28.257812 13.269531 25.773438 14.800781 C 23.167969 16.410156 21.546875 19.320312 21.546875 22.390625 L 21.546875 26.605469 C 21.355469 26.820312 21.183594 27.054688 21.035156 27.3125 C 20.519531 28.222656 20.386719 29.28125 20.664062 30.289062 C 20.945312 31.296875 21.597656 32.136719 22.503906 32.652344 C 22.867188 32.859375 23.253906 33.003906 23.660156 33.085938 C 23.742188 33.632812 23.851562 34.148438 23.96875 34.667969 C 24.429688 36.695312 25.671875 38.910156 27.292969 40.601562 C 27.570312 40.894531 27.855469 41.164062 28.144531 41.414062 L 28.144531 42.234375 C 15.660156 45.011719 15.554688 53.167969 15.4375 62.585938 C 15.421875 63.789062 15.40625 65.03125 15.363281 66.289062 C 15.355469 66.53125 15.445312 66.765625 15.617188 66.9375 C 15.785156 67.113281 16.015625 67.210938 16.257812 67.210938 L 45.828125 67.210938 C 46.070312 67.210938 46.300781 67.113281 46.46875 66.9375 C 46.636719 66.765625 46.726562 66.53125 46.71875 66.289062 C 46.675781 65.003906 46.664062 63.242188 46.644531 61.371094 C 46.632812 59.820312 46.617188 58.238281 46.589844 56.921875 L 52.058594 60.195312 C 52.058594 60.195312 52.066406 60.199219 52.070312 60.203125 C 53.292969 60.910156 54.527344 61.066406 55.644531 60.65625 C 56.789062 60.238281 57.691406 59.246094 58.191406 57.863281 L 63.359375 45.160156 C 64.394531 43.835938 66.5 41.554688 67.976562 40.289062 C 68.492188 39.84375 68.789062 39.277344 68.859375 38.605469 L 69.164062 35.773438 C 69.242188 35.046875 68.902344 34.363281 68.277344 33.992188 Z M 39.699219 44.445312 L 37.304688 49.558594 L 36.785156 49.269531 C 36.757812 49.25 36.730469 49.234375 36.699219 49.21875 C 36.695312 49.21875 36.691406 49.214844 36.6875 49.214844 L 34.632812 48.078125 L 37.871094 43.960938 C 38.503906 44.105469 39.113281 44.265625 39.699219 44.445312 Z M 35.121094 50.390625 L 34.324219 51.992188 L 32.234375 51.992188 L 31.4375 50.390625 L 33.277344 49.371094 Z M 29.953125 42.679688 C 31.046875 43.277344 32.171875 43.597656 33.261719 43.609375 L 33.277344 43.609375 C 34.382812 43.597656 35.515625 43.273438 36.617188 42.664062 L 33.277344 46.90625 Z M 44.164062 28.6875 C 44.316406 29.234375 44.246094 29.804688 43.964844 30.300781 C 43.75 30.679688 43.433594 30.972656 43.054688 31.160156 C 43.082031 30.085938 43.011719 28.828125 42.777344 27.226562 C 42.910156 27.269531 43.042969 27.328125 43.164062 27.398438 C 43.660156 27.679688 44.015625 28.136719 44.167969 28.683594 Z M 23.488281 31.15625 C 23.457031 31.136719 23.421875 31.121094 23.390625 31.105469 C 22.894531 30.824219 22.539062 30.367188 22.390625 29.820312 C 22.238281 29.269531 22.308594 28.695312 22.589844 28.199219 C 22.855469 27.734375 23.273438 27.394531 23.761719 27.234375 C 23.53125 28.828125 23.460938 30.085938 23.488281 31.15625 Z M 24.402344 23.777344 C 24.28125 24.332031 24.175781 24.855469 24.082031 25.351562 C 23.828125 25.375 23.578125 25.425781 23.335938 25.492188 L 23.335938 22.394531 C 23.335938 19.933594 24.632812 17.609375 26.714844 16.324219 C 28.6875 15.105469 31 15.050781 33.21875 16.164062 C 34.007812 16.5625 35.480469 17.300781 37.046875 16.925781 C 38.511719 16.582031 39.953125 16.894531 41.105469 17.804688 C 42.417969 18.847656 43.203125 20.5625 43.203125 22.394531 L 43.203125 25.488281 C 42.960938 25.417969 42.710938 25.375 42.460938 25.351562 C 42.367188 24.855469 42.257812 24.332031 42.136719 23.777344 C 42.035156 23.316406 41.59375 23.011719 41.128906 23.085938 C 36.691406 23.769531 33.480469 22.910156 31.320312 20.453125 C 31.144531 20.253906 30.894531 20.144531 30.636719 20.148438 C 30.371094 20.152344 30.125 20.273438 29.957031 20.472656 C 28.460938 22.296875 27.328125 22.671875 25.113281 23.089844 C 24.757812 23.15625 24.480469 23.425781 24.402344 23.777344 Z M 25.710938 34.273438 C 25.21875 32.101562 24.929688 30.003906 26.027344 24.726562 C 27.785156 24.367188 29.179688 23.886719 30.675781 22.351562 C 33.074219 24.605469 36.324219 25.460938 40.5625 24.960938 C 41.605469 30.0625 41.316406 32.136719 40.832031 34.273438 C 40.34375 36.421875 38.820312 38.792969 36.949219 40.292969 C 36.945312 40.296875 36.941406 40.300781 36.9375 40.304688 C 35.792969 41.21875 34.519531 41.808594 33.269531 41.824219 C 29.972656 41.785156 26.5 37.734375 25.710938 34.273438 Z M 28.679688 43.949219 L 31.925781 48.078125 L 29.882812 49.210938 C 29.871094 49.214844 29.863281 49.21875 29.855469 49.222656 C 29.824219 49.238281 29.789062 49.257812 29.761719 49.277344 L 29.253906 49.558594 L 26.84375 44.414062 C 27.421875 44.246094 28.03125 44.089844 28.679688 43.949219 Z M 29.097656 65.429688 L 23.0625 65.429688 C 23.085938 64.464844 23.097656 63.515625 23.109375 62.59375 C 23.132812 60.890625 23.152344 59.285156 23.242188 57.75 C 23.269531 57.257812 22.894531 56.835938 22.402344 56.804688 C 21.914062 56.777344 21.488281 57.152344 21.457031 57.644531 C 21.367188 59.222656 21.347656 60.851562 21.324219 62.570312 C 21.308594 63.503906 21.296875 64.457031 21.273438 65.429688 L 17.179688 65.429688 C 17.203125 64.472656 17.214844 63.53125 17.226562 62.613281 C 17.328125 54.328125 17.410156 48.039062 25.144531 44.996094 L 28.039062 51.179688 C 28.144531 51.40625 28.339844 51.578125 28.574219 51.652344 C 28.664062 51.679688 28.757812 51.695312 28.847656 51.695312 C 29 51.695312 29.148438 51.65625 29.28125 51.582031 L 29.871094 51.257812 L 30.757812 53.035156 L 29.09375 65.425781 Z M 30.898438 65.429688 L 32.460938 53.777344 L 34.09375 53.777344 L 35.652344 65.429688 Z M 56.535156 57.207031 C 56.527344 57.222656 56.523438 57.234375 56.519531 57.242188 C 56.203125 58.128906 55.675781 58.746094 55.035156 58.980469 C 54.433594 59.203125 53.71875 59.09375 52.976562 58.664062 L 46.105469 54.550781 C 46.105469 54.550781 46.097656 54.550781 46.09375 54.546875 C 46.09375 54.546875 46.089844 54.542969 46.085938 54.539062 L 43.707031 53.117188 C 43.28125 52.867188 42.734375 53.003906 42.480469 53.425781 C 42.230469 53.851562 42.367188 54.398438 42.789062 54.652344 L 44.773438 55.835938 C 44.828125 57.269531 44.847656 59.359375 44.863281 61.390625 C 44.878906 62.855469 44.890625 64.257812 44.914062 65.425781 L 37.457031 65.425781 L 35.796875 53.035156 L 36.683594 51.253906 L 37.273438 51.582031 C 37.40625 51.65625 37.558594 51.695312 37.707031 51.695312 C 37.796875 51.695312 37.890625 51.679688 37.980469 51.652344 C 38.21875 51.574219 38.410156 51.40625 38.515625 51.179688 L 41.394531 45.035156 C 44.691406 46.3125 47.394531 48.164062 50.589844 50.347656 C 51.3125 50.84375 52.058594 51.355469 52.847656 51.882812 C 53.0625 52.027344 53.328125 52.074219 53.582031 52.003906 C 53.832031 51.933594 54.039062 51.761719 54.152344 51.527344 C 54.832031 50.101562 55.542969 48.507812 56.292969 46.820312 C 56.472656 46.421875 56.648438 46.015625 56.832031 45.605469 L 61.257812 45.605469 L 56.535156 57.210938 Z M 67.394531 35.585938 L 67.089844 38.417969 C 67.066406 38.636719 66.984375 38.792969 66.816406 38.9375 C 65.328125 40.21875 63.308594 42.386719 62.152344 43.820312 L 57.636719 43.820312 C 58.878906 41.082031 60.199219 38.347656 61.515625 36.230469 L 61.351562 37.875 C 61.320312 38.222656 61.488281 38.558594 61.789062 38.734375 C 62.089844 38.910156 62.464844 38.894531 62.75 38.699219 L 67.273438 35.546875 C 67.285156 35.535156 67.332031 35.503906 67.375 35.53125 C 67.390625 35.539062 67.398438 35.542969 67.394531 35.582031 Z M 67.394531 35.585938 " fill-opacity="1" fill-rule="nonzero"/></g></svg>