<svg xmlns="http://www.w3.org/2000/svg" xmlns:xlink="http://www.w3.org/1999/xlink" width="100" zoomAndPan="magnify" viewBox="0 0 75 74.999997" height="100" preserveAspectRatio="xMidYMid meet" version="1.0"><defs><clipPath id="25e6ff914b"><path d="M 2.320312 7.5 L 62 7.5 L 62 67.5 L 2.320312 67.5 Z M 2.320312 7.5 " clip-rule="nonzero"/></clipPath><clipPath id="6286bd030a"><path d="M 64 59 L 72.820312 59 L 72.820312 67.5 L 64 67.5 Z M 64 59 " clip-rule="nonzero"/></clipPath></defs><path fill="#ffffff" d="M 69.335938 63.644531 C 69.945312 63.648438 70.445312 63.160156 70.453125 62.554688 C 70.453125 62.527344 70.453125 62.503906 70.453125 62.476562 C 70.453125 61.652344 69.953125 61.257812 68.929688 61.257812 L 67.273438 61.257812 L 67.273438 65.582031 L 67.898438 65.582031 L 67.898438 63.699219 L 68.664062 63.699219 L 68.679688 63.71875 L 69.867188 65.582031 L 70.535156 65.582031 L 69.253906 63.65625 L 69.339844 63.644531 Z M 68.617188 63.210938 L 67.894531 63.210938 L 67.894531 61.75 L 68.8125 61.75 C 69.285156 61.75 69.824219 61.828125 69.824219 62.445312 C 69.824219 63.152344 69.277344 63.210938 68.613281 63.210938 " fill-opacity="1" fill-rule="nonzero"/><g clip-path="url(#25e6ff914b)"><path fill="#ffffff" d="M 53.09375 58.222656 L 44.265625 58.222656 L 44.265625 44.421875 C 44.265625 41.132812 44.207031 36.898438 39.671875 36.898438 C 35.140625 36.898438 34.371094 40.484375 34.371094 44.183594 L 34.371094 58.222656 L 25.542969 58.222656 L 25.542969 29.84375 L 34.019531 29.84375 L 34.019531 33.722656 L 34.136719 33.722656 C 35.867188 30.773438 39.082031 29.011719 42.5 29.136719 C 51.449219 29.136719 53.097656 35.011719 53.097656 42.652344 L 53.097656 58.222656 Z M 15.574219 25.964844 C 12.746094 25.964844 10.449219 23.675781 10.449219 20.855469 C 10.449219 18.03125 12.742188 15.738281 15.574219 15.738281 C 18.402344 15.738281 20.699219 18.027344 20.699219 20.851562 C 20.699219 23.675781 18.40625 25.964844 15.574219 25.964844 M 19.992188 58.222656 L 11.152344 58.222656 L 11.152344 29.84375 L 19.992188 29.84375 Z M 57.496094 7.554688 L 6.714844 7.554688 C 4.316406 7.527344 2.347656 9.445312 2.320312 11.839844 L 2.320312 62.730469 C 2.347656 65.128906 4.3125 67.046875 6.714844 67.019531 L 57.496094 67.019531 C 59.902344 67.050781 61.878906 65.128906 61.910156 62.730469 L 61.910156 11.839844 C 61.878906 9.4375 59.902344 7.519531 57.496094 7.550781 " fill-opacity="1" fill-rule="nonzero"/></g><g clip-path="url(#6286bd030a)"><path fill="#ffffff" d="M 68.691406 59.332031 C 66.445312 59.355469 64.644531 61.183594 64.667969 63.425781 C 64.691406 65.667969 66.523438 67.464844 68.769531 67.441406 C 71.015625 67.417969 72.816406 65.585938 72.792969 63.347656 C 72.769531 61.136719 70.984375 59.351562 68.769531 59.332031 L 68.691406 59.332031 M 68.691406 66.980469 C 66.722656 67.011719 65.101562 65.445312 65.070312 63.480469 C 65.035156 61.519531 66.605469 59.902344 68.574219 59.867188 C 70.539062 59.832031 72.160156 61.402344 72.195312 63.363281 L 72.195312 63.421875 C 72.238281 65.34375 70.707031 66.933594 68.785156 66.976562 L 68.691406 66.976562 " fill-opacity="1" fill-rule="nonzero"/></g></svg>