<svg xmlns="http://www.w3.org/2000/svg" xmlns:xlink="http://www.w3.org/1999/xlink" width="100" zoomAndPan="magnify" viewBox="0 0 75 74.999997" height="100" preserveAspectRatio="xMidYMid meet" version="1.0"><path fill="#ffffff" d="M 4.753906 35.09375 C 4.59375 35.085938 4.433594 35.097656 4.277344 35.125 C 4.011719 35.167969 3.765625 35.257812 3.535156 35.398438 C 3.308594 35.539062 3.117188 35.71875 2.960938 35.9375 C 2.804688 36.152344 2.695312 36.390625 2.636719 36.652344 C 2.578125 36.910156 2.574219 37.171875 2.621094 37.433594 C 2.734375 38.5 3.886719 39.402344 4.953125 39.429688 C 5.0625 39.433594 5.171875 39.425781 5.28125 39.410156 C 6.4375 39.222656 6.738281 38.046875 6.546875 36.890625 C 6.332031 35.585938 5.394531 35.125 4.753906 35.09375 Z M 5.886719 38.183594 C 5.777344 38.34375 5.628906 38.414062 5.433594 38.394531 C 5.277344 38.382812 5.144531 38.320312 5.035156 38.203125 C 4.925781 38.085938 4.875 37.949219 4.875 37.789062 C 4.875 37.585938 4.914062 37.386719 4.992188 37.199219 C 5.042969 37.074219 5.046875 36.953125 5.007812 36.824219 C 4.964844 36.699219 4.886719 36.601562 4.769531 36.535156 C 4.628906 36.445312 4.476562 36.417969 4.3125 36.453125 C 4.152344 36.484375 4.027344 36.566406 3.933594 36.695312 C 3.875 36.792969 3.828125 36.894531 3.796875 37 C 3.789062 37.019531 3.785156 37.035156 3.78125 37.042969 C 3.730469 37.175781 3.644531 37.214844 3.589844 37.207031 C 3.542969 37.199219 3.515625 37.171875 3.503906 37.125 C 3.441406 36.746094 3.546875 36.421875 3.824219 36.152344 C 4.0625 35.914062 4.347656 35.816406 4.683594 35.859375 C 5.039062 35.902344 5.296875 36.078125 5.464844 36.390625 C 5.625 36.769531 5.589844 37.128906 5.367188 37.472656 C 5.355469 37.5 5.34375 37.527344 5.332031 37.546875 C 5.253906 37.683594 5.25 37.820312 5.320312 37.960938 C 5.386719 38.046875 5.472656 38.085938 5.578125 38.082031 C 5.625 38.082031 5.671875 38.078125 5.71875 38.066406 C 5.777344 38.050781 5.839844 38.039062 5.875 38.082031 C 5.90625 38.113281 5.90625 38.148438 5.886719 38.183594 Z M 5.886719 38.183594 " fill-opacity="1" fill-rule="nonzero"/><path fill="#ffffff" d="M 19.507812 40.378906 C 19.75 39.769531 19.886719 39.136719 19.917969 38.484375 C 19.917969 37.6875 19.460938 37.355469 19.171875 37.355469 C 19.164062 37.324219 19.105469 37.117188 19.027344 36.867188 C 18.980469 36.722656 18.925781 36.578125 18.867188 36.441406 C 19.113281 36.101562 19.207031 35.726562 19.144531 35.3125 C 19.097656 35 18.957031 34.730469 18.726562 34.507812 C 18.292969 34.144531 17.800781 33.902344 17.246094 33.785156 C 17.164062 33.761719 16.890625 33.6875 16.867188 33.679688 C 16.867188 33.664062 16.847656 32.800781 16.832031 32.429688 C 16.824219 32.058594 16.769531 31.691406 16.664062 31.332031 C 16.535156 30.808594 16.277344 30.355469 15.894531 29.972656 C 16.835938 29.011719 17.421875 27.953125 17.417969 27.042969 C 17.417969 25.292969 15.242188 24.765625 12.5625 25.859375 C 12.558594 25.859375 11.996094 26.097656 11.992188 26.097656 C 11.992188 26.09375 10.964844 25.101562 10.949219 25.089844 C 7.894531 22.457031 -1.660156 32.945312 1.394531 35.492188 L 2.0625 36.050781 C 1.878906 36.535156 1.816406 37.035156 1.875 37.546875 C 1.96875 38.3125 2.3125 38.941406 2.90625 39.441406 C 3.480469 39.957031 4.15625 40.222656 4.929688 40.246094 C 6.121094 42.949219 8.835938 44.609375 12.019531 44.703125 C 15.4375 44.804688 18.304688 43.222656 19.507812 40.378906 Z M 20.207031 37.175781 C 20.511719 37.5625 20.652344 37.996094 20.632812 38.484375 C 20.601562 39.226562 20.449219 39.941406 20.171875 40.632812 L 20.167969 40.648438 C 19.53125 42.164062 18.5 43.339844 17.078125 44.183594 C 15.609375 45.027344 14.027344 45.4375 12.324219 45.414062 C 12.21875 45.414062 12.109375 45.414062 12 45.410156 C 10.324219 45.375 8.773438 44.921875 7.34375 44.050781 C 6.089844 43.273438 5.125 42.226562 4.460938 40.917969 C 3.691406 40.800781 3.015625 40.484375 2.433594 39.96875 C 1.699219 39.351562 1.277344 38.566406 1.164062 37.617188 C 1.117188 37.171875 1.140625 36.730469 1.242188 36.292969 L 0.933594 36.03125 C 0.402344 35.578125 0.121094 35.007812 0.09375 34.316406 C 0.0664062 33.628906 0.183594 32.964844 0.441406 32.328125 C 1.078125 30.609375 2.542969 28.5625 4.355469 26.855469 C 5.171875 26.074219 6.0625 25.398438 7.035156 24.824219 C 7.859375 24.300781 8.757812 24.015625 9.730469 23.964844 C 10.371094 23.949219 10.933594 24.144531 11.421875 24.558594 C 11.449219 24.582031 11.847656 24.96875 12.152344 25.265625 C 12.230469 25.230469 12.285156 25.210938 12.285156 25.207031 C 13.195312 24.816406 14.144531 24.609375 15.136719 24.582031 C 16.957031 24.582031 18.132812 25.546875 18.132812 27.042969 C 18.136719 27.960938 17.679688 28.996094 16.835938 29.996094 C 17.066406 30.347656 17.238281 30.726562 17.351562 31.132812 C 17.46875 31.546875 17.535156 31.96875 17.542969 32.398438 C 17.554688 32.585938 17.5625 32.878906 17.566406 33.140625 C 18.199219 33.300781 18.757812 33.59375 19.242188 34.023438 C 19.578125 34.347656 19.78125 34.742188 19.851562 35.199219 C 19.921875 35.652344 19.859375 36.082031 19.652344 36.496094 C 19.671875 36.542969 19.691406 36.597656 19.707031 36.65625 C 19.722656 36.707031 19.738281 36.753906 19.753906 36.800781 C 19.929688 36.894531 20.082031 37.019531 20.207031 37.175781 Z M 20.207031 37.175781 " fill-opacity="1" fill-rule="nonzero"/><path fill="#ffffff" d="M 18.042969 36.300781 C 18.289062 36.074219 18.402344 35.789062 18.378906 35.457031 C 18.355469 35.292969 18.285156 35.15625 18.167969 35.039062 C 17.824219 34.757812 17.4375 34.574219 17 34.488281 C 16.804688 34.429688 16.671875 34.394531 16.53125 34.347656 C 16.273438 34.265625 16.148438 34.199219 16.121094 33.71875 C 16.109375 33.507812 16.070312 32.78125 16.058594 32.480469 C 16.035156 31.949219 15.972656 31.230469 15.523438 30.929688 C 15.40625 30.855469 15.28125 30.8125 15.140625 30.808594 C 15.0625 30.804688 14.988281 30.8125 14.914062 30.832031 C 14.679688 30.882812 14.480469 30.996094 14.316406 31.167969 C 13.875 31.566406 13.359375 31.738281 12.761719 31.6875 C 12.449219 31.671875 12.117188 31.625 11.734375 31.601562 C 11.660156 31.597656 11.585938 31.59375 11.511719 31.589844 C 11.265625 31.597656 11.03125 31.644531 10.800781 31.738281 C 10.574219 31.828125 10.367188 31.957031 10.1875 32.121094 C 10.003906 32.285156 9.859375 32.476562 9.746094 32.691406 C 9.632812 32.910156 9.5625 33.136719 9.535156 33.378906 C 9.316406 34.878906 10.402344 35.65625 10.71875 36.109375 C 10.765625 36.167969 10.796875 36.238281 10.804688 36.3125 C 10.792969 36.402344 10.757812 36.472656 10.691406 36.527344 L 10.691406 36.53125 C 10.25 37.019531 9.953125 37.585938 9.804688 38.226562 C 9.65625 38.867188 9.667969 39.503906 9.847656 40.136719 C 9.886719 40.285156 9.941406 40.433594 10.003906 40.574219 C 10.796875 42.425781 13.257812 43.289062 15.660156 42.503906 C 15.976562 42.402344 16.28125 42.273438 16.574219 42.117188 C 17.105469 41.855469 17.570312 41.507812 17.96875 41.074219 C 18.605469 40.4375 18.992188 39.675781 19.132812 38.792969 C 19.207031 38.316406 19.101562 38.128906 18.957031 38.042969 C 18.851562 37.984375 18.738281 37.960938 18.621094 37.980469 C 18.558594 37.605469 18.453125 37.242188 18.300781 36.890625 Z M 18.042969 36.300781 " fill-opacity="1" fill-rule="nonzero"/><path fill="#ffffff" d="M 14.105469 29.148438 C 14.144531 29.15625 14.167969 29.089844 14.132812 29.070312 C 13.554688 28.773438 12.933594 28.613281 12.28125 28.59375 C 12.265625 28.589844 12.257812 28.585938 12.25 28.574219 C 12.246094 28.5625 12.246094 28.550781 12.253906 28.539062 C 12.355469 28.410156 12.472656 28.292969 12.601562 28.191406 C 12.617188 28.183594 12.621094 28.167969 12.613281 28.152344 C 12.609375 28.136719 12.597656 28.128906 12.578125 28.132812 C 11.777344 28.210938 11.039062 28.46875 10.363281 28.902344 C 10.351562 28.914062 10.335938 28.914062 10.324219 28.902344 C 10.3125 28.894531 10.308594 28.882812 10.3125 28.867188 C 10.363281 28.671875 10.441406 28.480469 10.546875 28.304688 C 10.554688 28.289062 10.550781 28.277344 10.539062 28.265625 C 10.527344 28.253906 10.515625 28.25 10.5 28.257812 C 9.53125 28.785156 8.691406 29.464844 7.976562 30.296875 C 7.960938 30.3125 7.960938 30.328125 7.976562 30.34375 C 7.988281 30.355469 8.003906 30.359375 8.023438 30.347656 C 8.851562 29.773438 9.761719 29.375 10.746094 29.15625 C 11.867188 28.902344 12.984375 28.898438 14.105469 29.148438 " fill-opacity="1" fill-rule="nonzero"/><path fill="#ffffff" d="M 11.277344 26.46875 C 11.277344 26.46875 10.445312 25.515625 10.195312 25.445312 C 8.648438 25.035156 5.3125 27.308594 3.179688 30.308594 C 2.320312 31.523438 1.085938 33.675781 1.675781 34.78125 C 1.886719 35.03125 2.121094 35.253906 2.378906 35.453125 C 2.792969 34.882812 3.34375 34.535156 4.039062 34.40625 C 4.898438 32.039062 6.316406 30.070312 8.300781 28.496094 C 9.234375 27.738281 10.226562 27.0625 11.277344 26.46875 " fill-opacity="1" fill-rule="nonzero"/><path fill="#000000" d="M 5.828125 38.144531 C 5.855469 38.175781 5.859375 38.210938 5.839844 38.246094 C 5.738281 38.40625 5.59375 38.480469 5.40625 38.460938 C 5.25 38.445312 5.117188 38.378906 5.015625 38.257812 C 4.910156 38.140625 4.863281 38.003906 4.871094 37.847656 C 4.867188 37.640625 4.902344 37.4375 4.980469 37.246094 C 5.03125 37.121094 5.035156 36.996094 4.996094 36.871094 C 4.953125 36.742188 4.878906 36.644531 4.765625 36.570312 C 4.632812 36.480469 4.484375 36.453125 4.324219 36.488281 C 4.171875 36.519531 4.050781 36.605469 3.964844 36.734375 C 3.90625 36.832031 3.863281 36.9375 3.832031 37.042969 C 3.828125 37.0625 3.820312 37.078125 3.816406 37.089844 C 3.769531 37.222656 3.6875 37.261719 3.632812 37.253906 C 3.609375 37.25 3.570312 37.234375 3.550781 37.171875 C 3.488281 36.792969 3.589844 36.460938 3.855469 36.179688 C 4.082031 35.941406 4.355469 35.84375 4.683594 35.886719 C 5.03125 35.933594 5.28125 36.113281 5.433594 36.425781 C 5.585938 36.808594 5.554688 37.171875 5.34375 37.523438 C 5.328125 37.550781 5.316406 37.578125 5.308594 37.601562 C 5.230469 37.738281 5.226562 37.878906 5.296875 38.019531 C 5.355469 38.105469 5.4375 38.148438 5.542969 38.144531 C 5.589844 38.144531 5.632812 38.136719 5.679688 38.125 C 5.734375 38.113281 5.792969 38.097656 5.828125 38.144531 M 19.890625 38.492188 C 19.855469 39.144531 19.71875 39.773438 19.480469 40.378906 C 18.285156 43.21875 15.4375 44.796875 12.042969 44.699219 C 8.878906 44.605469 6.179688 42.949219 4.996094 40.25 C 4.226562 40.226562 3.558594 39.960938 2.988281 39.445312 C 2.398438 38.949219 2.054688 38.316406 1.964844 37.558594 C 1.90625 37.042969 1.964844 36.546875 2.148438 36.0625 L 1.484375 35.507812 C -1.550781 32.964844 7.941406 22.496094 10.980469 25.125 C 10.996094 25.136719 12.011719 26.128906 12.015625 26.128906 C 12.019531 26.128906 12.574219 25.894531 12.578125 25.894531 C 15.242188 24.800781 17.402344 25.328125 17.40625 27.074219 C 17.40625 27.980469 16.824219 29.039062 15.890625 30 C 16.269531 30.382812 16.523438 30.832031 16.65625 31.355469 C 16.757812 31.710938 16.8125 32.078125 16.820312 32.449219 C 16.835938 32.820312 16.855469 33.679688 16.855469 33.695312 C 16.878906 33.703125 17.148438 33.777344 17.230469 33.800781 C 17.785156 33.917969 18.273438 34.160156 18.703125 34.523438 C 18.933594 34.746094 19.070312 35.011719 19.121094 35.328125 C 19.179688 35.738281 19.085938 36.113281 18.839844 36.449219 C 18.902344 36.589844 18.957031 36.730469 19 36.875 C 19.082031 37.125 19.136719 37.335938 19.144531 37.363281 C 19.433594 37.363281 19.890625 37.695312 19.890625 38.492188 Z M 6.476562 36.933594 C 6.269531 35.609375 5.367188 35.140625 4.753906 35.109375 C 4.597656 35.101562 4.445312 35.109375 4.292969 35.140625 C 3.199219 35.359375 2.582031 36.285156 2.703125 37.484375 C 2.746094 37.753906 2.832031 38.007812 2.964844 38.246094 C 3.097656 38.488281 3.261719 38.699219 3.464844 38.882812 C 3.671875 39.066406 3.898438 39.210938 4.152344 39.320312 C 4.40625 39.429688 4.667969 39.492188 4.945312 39.511719 C 5.050781 39.515625 5.15625 39.507812 5.257812 39.488281 C 6.367188 39.300781 6.660156 38.105469 6.476562 36.933594 Z M 8.347656 28.523438 C 9.273438 27.765625 10.261719 27.09375 11.304688 26.5 C 11.304688 26.5 10.476562 25.550781 10.226562 25.480469 C 8.691406 25.070312 5.378906 27.335938 3.261719 30.332031 C 2.402344 31.546875 1.179688 33.691406 1.765625 34.796875 C 1.972656 35.042969 2.207031 35.269531 2.464844 35.464844 C 2.871094 34.898438 3.421875 34.550781 4.113281 34.421875 C 4.964844 32.0625 6.375 30.09375 8.347656 28.523438 Z M 11.683594 39.007812 C 11.773438 39.394531 12.011719 39.644531 12.398438 39.75 C 12.582031 39.820312 12.769531 39.871094 12.960938 39.902344 C 15.390625 40.316406 17.660156 38.941406 18.171875 38.59375 C 18.210938 38.566406 18.234375 38.59375 18.203125 38.640625 C 18.1875 38.664062 18.171875 38.6875 18.152344 38.710938 C 17.527344 39.511719 15.847656 40.4375 13.660156 40.4375 C 12.707031 40.4375 11.75 40.101562 11.402344 39.589844 C 10.859375 38.796875 11.375 37.636719 12.28125 37.757812 C 12.28125 37.757812 12.589844 37.789062 12.675781 37.800781 C 14.105469 37.9375 15.480469 37.71875 16.796875 37.148438 C 18.03125 36.578125 18.496094 35.953125 18.425781 35.445312 C 18.402344 35.285156 18.332031 35.144531 18.214844 35.03125 C 17.871094 34.753906 17.480469 34.570312 17.046875 34.484375 C 16.851562 34.429688 16.71875 34.394531 16.574219 34.347656 C 16.320312 34.265625 16.191406 34.195312 16.164062 33.722656 C 16.152344 33.511719 16.117188 32.789062 16.101562 32.488281 C 16.078125 31.964844 16.015625 31.25 15.566406 30.953125 C 15.449219 30.875 15.324219 30.835938 15.183594 30.832031 C 15.105469 30.824219 15.03125 30.832031 14.957031 30.851562 C 14.722656 30.90625 14.523438 31.015625 14.359375 31.1875 C 13.917969 31.582031 13.398438 31.753906 12.804688 31.703125 C 12.488281 31.691406 12.15625 31.640625 11.773438 31.617188 C 11.699219 31.613281 11.625 31.609375 11.550781 31.605469 C 11.308594 31.613281 11.070312 31.660156 10.84375 31.75 C 10.613281 31.839844 10.410156 31.96875 10.226562 32.132812 C 10.046875 32.296875 9.898438 32.484375 9.785156 32.699219 C 9.671875 32.914062 9.601562 33.144531 9.570312 33.386719 C 9.355469 34.875 10.441406 35.644531 10.753906 36.097656 C 10.804688 36.15625 10.832031 36.222656 10.84375 36.296875 C 10.832031 36.382812 10.796875 36.457031 10.730469 36.511719 C 10.289062 37 9.992188 37.558594 9.84375 38.195312 C 9.691406 38.832031 9.707031 39.464844 9.882812 40.09375 C 9.925781 40.242188 9.976562 40.386719 10.042969 40.527344 C 10.835938 42.367188 13.296875 43.222656 15.703125 42.445312 C 16.019531 42.34375 16.324219 42.214844 16.617188 42.0625 C 17.148438 41.800781 17.613281 41.457031 18.015625 41.023438 C 18.652344 40.394531 19.039062 39.640625 19.179688 38.757812 C 19.253906 38.285156 19.148438 38.101562 19.003906 38.011719 C 18.898438 37.957031 18.785156 37.933594 18.667969 37.953125 C 18.605469 37.578125 18.5 37.21875 18.347656 36.871094 C 17.652344 37.386719 16.890625 37.765625 16.054688 38 C 15.054688 38.28125 14.03125 38.390625 12.992188 38.328125 C 12.328125 38.277344 11.890625 38.082031 11.726562 38.617188 C 12.742188 38.953125 13.78125 39.058594 14.847656 38.929688 C 14.886719 38.925781 14.90625 38.945312 14.910156 38.980469 C 14.914062 39.007812 14.902344 39.03125 14.875 39.042969 C 14.875 39.042969 13.640625 39.609375 11.683594 39.007812 Z M 8.070312 30.371094 C 8.894531 29.796875 9.796875 29.402344 10.777344 29.183594 C 11.886719 28.929688 13 28.925781 14.113281 29.175781 C 14.152344 29.183594 14.175781 29.117188 14.140625 29.097656 C 13.5625 28.800781 12.949219 28.640625 12.300781 28.617188 C 12.285156 28.617188 12.277344 28.613281 12.269531 28.601562 C 12.265625 28.589844 12.265625 28.578125 12.273438 28.566406 C 12.375 28.4375 12.488281 28.320312 12.621094 28.222656 C 12.632812 28.210938 12.636719 28.199219 12.632812 28.183594 C 12.625 28.167969 12.613281 28.160156 12.597656 28.160156 C 11.796875 28.238281 11.066406 28.496094 10.394531 28.929688 C 10.382812 28.9375 10.371094 28.9375 10.355469 28.929688 C 10.34375 28.921875 10.339844 28.910156 10.34375 28.894531 C 10.394531 28.699219 10.472656 28.507812 10.574219 28.332031 C 10.582031 28.316406 10.582031 28.304688 10.570312 28.292969 C 10.558594 28.28125 10.546875 28.28125 10.53125 28.289062 C 9.570312 28.8125 8.734375 29.492188 8.023438 30.320312 C 8.011719 30.335938 8.011719 30.351562 8.023438 30.367188 C 8.039062 30.378906 8.050781 30.382812 8.070312 30.371094 Z M 14.460938 35.425781 C 14.621094 35.527344 14.761719 35.503906 14.882812 35.359375 C 14.945312 35.242188 14.855469 35.082031 14.683594 35.003906 C 14.523438 34.902344 14.382812 34.925781 14.261719 35.070312 C 14.203125 35.1875 14.289062 35.347656 14.460938 35.425781 Z M 14.988281 33.527344 C 15.027344 33.738281 15.113281 33.933594 15.246094 34.109375 C 15.378906 34.09375 15.515625 34.09375 15.648438 34.109375 C 15.726562 33.871094 15.734375 33.632812 15.667969 33.390625 C 15.570312 32.957031 15.441406 32.695312 15.171875 32.734375 C 14.898438 32.777344 14.890625 33.089844 14.988281 33.527344 Z M 15.5625 34.523438 C 15.464844 34.496094 15.375 34.507812 15.289062 34.5625 C 15.207031 34.613281 15.152344 34.6875 15.136719 34.78125 C 15.117188 34.878906 15.136719 34.96875 15.195312 35.046875 C 15.253906 35.125 15.332031 35.171875 15.433594 35.179688 C 15.53125 35.191406 15.617188 35.164062 15.691406 35.097656 C 15.765625 35.03125 15.804688 34.949219 15.808594 34.851562 C 15.816406 34.773438 15.796875 34.703125 15.75 34.640625 C 15.703125 34.574219 15.640625 34.539062 15.5625 34.523438 Z M 15.5625 34.523438 " fill-opacity="1" fill-rule="nonzero"/><path fill="#000000" d="M 11.074219 34.484375 C 11.03125 34.480469 11.011719 34.460938 11.007812 34.4375 C 10.992188 34.363281 11.105469 34.238281 11.230469 34.148438 C 11.621094 33.867188 12.042969 33.816406 12.488281 34 C 12.683594 34.078125 12.84375 34.207031 12.964844 34.378906 C 13.007812 34.449219 13.015625 34.503906 12.988281 34.53125 C 12.945312 34.578125 12.832031 34.527344 12.648438 34.445312 C 12.421875 34.335938 12.1875 34.289062 11.9375 34.296875 C 11.644531 34.34375 11.359375 34.40625 11.074219 34.484375 Z M 12.90625 34.859375 C 12.734375 34.679688 12.523438 34.613281 12.277344 34.65625 C 12.109375 34.671875 11.957031 34.734375 11.824219 34.84375 C 11.757812 34.886719 11.71875 34.949219 11.707031 35.023438 C 11.703125 35.039062 11.710938 35.054688 11.722656 35.066406 C 11.734375 35.074219 11.75 35.082031 11.761719 35.082031 C 11.824219 35.070312 11.882812 35.054688 11.9375 35.03125 C 12.1875 34.941406 12.445312 34.914062 12.707031 34.953125 C 12.828125 34.96875 12.886719 34.972656 12.914062 34.933594 C 12.925781 34.90625 12.925781 34.882812 12.90625 34.859375 Z M 12.90625 34.859375 " fill-opacity="1" fill-rule="nonzero"/><path fill="#000000" d="M 12.566406 34.96875 C 12.640625 34.695312 12.644531 34.421875 12.578125 34.148438 C 12.480469 33.714844 12.332031 33.464844 12.058594 33.507812 C 11.785156 33.546875 11.777344 33.898438 11.863281 34.335938 C 11.90625 34.535156 11.984375 34.722656 12.097656 34.898438 C 12.316406 35.199219 12.464844 35.121094 12.566406 34.96875 Z M 12.566406 34.96875 " fill-opacity="1" fill-rule="nonzero"/><path fill="#000000" d="M 30.113281 35.351562 C 28.605469 35.351562 28.582031 36.980469 28.222656 36.980469 C 28.148438 36.980469 28.089844 36.914062 28.089844 36.824219 C 28.089844 36.707031 28.121094 36.601562 28.121094 36.410156 C 28.121094 35.828125 27.707031 35.351562 26.835938 35.351562 C 26.09375 35.351562 25.554688 35.71875 25.222656 36.394531 C 25.054688 36.738281 25.070312 36.976562 24.902344 36.976562 C 24.839844 36.976562 24.789062 36.917969 24.789062 36.835938 C 24.789062 36.585938 25.011719 36.359375 25.011719 35.824219 C 25.011719 35.683594 25 35.566406 24.976562 35.472656 L 23.546875 35.472656 L 23.546875 40.96875 L 25.492188 40.96875 L 25.492188 37.984375 C 25.492188 37.398438 25.746094 37.023438 26.179688 37.023438 C 26.46875 37.023438 26.722656 37.269531 26.722656 37.726562 L 26.722656 40.96875 L 28.671875 40.96875 L 28.671875 37.984375 C 28.671875 37.324219 28.980469 37.023438 29.359375 37.023438 C 29.679688 37.023438 29.902344 37.3125 29.902344 37.726562 L 29.902344 40.96875 L 31.828125 40.96875 L 31.828125 37.59375 C 31.828125 36.121094 31.234375 35.351562 30.117188 35.351562 Z M 30.113281 35.351562 " fill-opacity="1" fill-rule="nonzero"/><path fill="#000000" d="M 41.496094 33.933594 L 43.421875 33.933594 L 43.421875 40.96875 L 41.496094 40.96875 Z M 41.496094 33.933594 " fill-opacity="1" fill-rule="nonzero"/><path fill="#000000" d="M 44.054688 38.15625 C 44.054688 40.023438 45.277344 41.101562 46.867188 41.101562 C 47.777344 41.101562 48.472656 40.746094 48.902344 40.398438 L 48.902344 38.582031 C 48.46875 38.875 47.804688 39.210938 47.089844 39.210938 C 46.199219 39.210938 45.734375 38.84375 45.734375 38.210938 C 45.734375 37.574219 46.269531 37.222656 47.054688 37.222656 C 47.769531 37.222656 48.421875 37.5 48.902344 37.824219 L 48.902344 35.902344 C 48.496094 35.601562 47.777344 35.339844 46.867188 35.339844 C 45.160156 35.339844 44.054688 36.394531 44.054688 38.15625 Z M 44.054688 38.15625 " fill-opacity="1" fill-rule="nonzero"/><path fill="#000000" d="M 53.136719 35.363281 C 52.355469 35.363281 51.902344 35.722656 51.570312 36.386719 C 51.421875 36.679688 51.410156 36.96875 51.246094 36.96875 C 51.183594 36.96875 51.136719 36.910156 51.136719 36.824219 C 51.136719 36.519531 51.503906 36.066406 51.503906 34.726562 C 51.503906 34.386719 51.46875 34.128906 51.402344 33.945312 L 49.722656 33.945312 L 49.722656 40.96875 L 51.667969 40.96875 L 51.667969 38.011719 C 51.667969 37.457031 51.964844 37.035156 52.414062 37.035156 C 52.75 37.035156 52.980469 37.304688 52.980469 37.738281 L 52.980469 40.96875 L 54.925781 40.96875 L 54.925781 37.527344 C 54.925781 36.09375 54.292969 35.363281 53.136719 35.363281 Z M 53.136719 35.363281 " fill-opacity="1" fill-rule="nonzero"/><path fill="#000000" d="M 70.988281 35.339844 C 70.128906 35.339844 69.691406 35.824219 69.445312 36.273438 C 69.25 36.628906 69.222656 36.96875 69.054688 36.96875 C 68.972656 36.96875 68.933594 36.921875 68.933594 36.824219 C 68.933594 36.65625 69.15625 36.371094 69.15625 35.902344 C 69.15625 35.710938 69.140625 35.570312 69.109375 35.472656 L 67.65625 35.472656 L 67.65625 42.378906 L 69.609375 42.378906 L 69.609375 40.207031 C 69.859375 40.734375 70.378906 41.078125 71.089844 41.078125 C 72.371094 41.078125 73.246094 40.035156 73.246094 38.210938 C 73.246094 36.527344 72.433594 35.339844 70.988281 35.339844 Z M 70.464844 39.816406 C 70.074219 39.816406 69.644531 39.414062 69.644531 38.398438 C 69.644531 37.511719 69.996094 36.988281 70.464844 36.988281 C 71.007812 36.988281 71.3125 37.507812 71.3125 38.398438 C 71.3125 39.386719 70.960938 39.816406 70.464844 39.816406 Z M 70.464844 39.816406 " fill-opacity="1" fill-rule="nonzero"/><path fill="#000000" d="M 35.304688 35.339844 C 34.296875 35.339844 33.378906 35.585938 32.738281 35.902344 L 32.738281 37.492188 C 33.484375 37.09375 34.246094 36.800781 34.914062 36.800781 C 35.632812 36.800781 35.933594 37.175781 35.890625 37.667969 C 35.601562 37.636719 35.28125 37.625 34.890625 37.625 C 33.371094 37.625 32.417969 38.210938 32.417969 39.492188 C 32.417969 40.542969 33.242188 41.082031 34.148438 41.082031 C 35.054688 41.082031 35.640625 40.664062 35.992188 40.035156 C 36.191406 39.675781 36.175781 39.457031 36.304688 39.457031 C 36.367188 39.457031 36.414062 39.503906 36.414062 39.574219 C 36.414062 39.804688 36.347656 39.9375 36.347656 40.25 C 36.347656 40.539062 36.386719 40.785156 36.445312 40.960938 L 37.84375 40.960938 L 37.84375 38.019531 C 37.84375 36.347656 37.070312 35.339844 35.304688 35.339844 Z M 34.648438 39.730469 C 34.285156 39.730469 34.09375 39.574219 34.09375 39.304688 C 34.09375 38.949219 34.429688 38.679688 35.304688 38.679688 C 35.496094 38.679688 35.667969 38.683594 35.828125 38.699219 C 35.75 39.203125 35.304688 39.730469 34.648438 39.730469 Z M 34.648438 39.730469 " fill-opacity="1" fill-rule="nonzero"/><path fill="#000000" d="M 42.238281 30.292969 L 42.238281 27.207031 L 40.898438 27.207031 L 40.898438 30.132812 C 40.898438 30.859375 40.410156 31.34375 39.765625 31.34375 C 39.121094 31.34375 38.628906 30.859375 38.628906 30.132812 L 38.628906 27.207031 L 37.292969 27.207031 L 37.300781 30.292969 C 37.300781 31.636719 38.386719 32.617188 39.769531 32.617188 C 41.148438 32.617188 42.238281 31.636719 42.238281 30.292969 Z M 42.238281 30.292969 " fill-opacity="1" fill-rule="nonzero"/><path fill="#000000" d="M 47.410156 32.511719 L 48.746094 32.511719 L 48.746094 28.445312 L 50.339844 28.445312 L 50.339844 27.207031 L 45.8125 27.207031 L 45.8125 28.445312 L 47.410156 28.445312 Z M 47.410156 32.511719 " fill-opacity="1" fill-rule="nonzero"/><path fill="#000000" d="M 43.613281 27.210938 L 44.949219 27.210938 L 44.949219 32.511719 L 43.613281 32.511719 Z M 43.613281 27.210938 " fill-opacity="1" fill-rule="nonzero"/><path fill="#000000" d="M 33.496094 32.511719 L 34.832031 32.511719 L 34.832031 28.445312 L 36.425781 28.445312 L 36.425781 27.207031 L 31.898438 27.207031 L 31.898438 28.445312 L 33.496094 28.445312 Z M 33.496094 32.511719 " fill-opacity="1" fill-rule="nonzero"/><path fill="#000000" d="M 24.882812 29.863281 L 24.882812 27.210938 L 23.546875 27.210938 L 23.546875 32.511719 L 24.882812 32.511719 Z M 24.882812 29.863281 " fill-opacity="1" fill-rule="nonzero"/><path fill="#000000" d="M 27.589844 29.585938 C 27.589844 28.859375 28.082031 28.375 28.726562 28.375 C 29.371094 28.375 29.859375 28.859375 29.859375 29.585938 L 29.859375 32.511719 L 31.199219 32.511719 L 31.195312 29.425781 C 31.195312 28.082031 30.105469 27.101562 28.722656 27.101562 C 27.34375 27.101562 26.253906 28.082031 26.253906 29.425781 L 26.253906 32.511719 L 27.589844 32.511719 Z M 27.589844 29.585938 " fill-opacity="1" fill-rule="nonzero"/><path fill="#000000" d="M 65.132812 35.351562 C 63.625 35.351562 63.597656 36.980469 63.242188 36.980469 C 63.167969 36.980469 63.109375 36.914062 63.109375 36.824219 C 63.109375 36.707031 63.140625 36.601562 63.140625 36.410156 C 63.140625 35.828125 62.722656 35.351562 61.851562 35.351562 C 61.113281 35.351562 60.570312 35.71875 60.238281 36.394531 C 60.074219 36.738281 60.085938 36.976562 59.917969 36.976562 C 59.855469 36.976562 59.804688 36.917969 59.804688 36.835938 C 59.804688 36.585938 60.027344 36.359375 60.027344 35.824219 C 60.027344 35.683594 60.015625 35.566406 59.996094 35.472656 L 58.558594 35.472656 L 58.558594 40.96875 L 60.503906 40.96875 L 60.503906 37.984375 C 60.503906 37.398438 60.761719 37.023438 61.195312 37.023438 C 61.484375 37.023438 61.738281 37.269531 61.738281 37.726562 L 61.738281 40.96875 L 63.683594 40.96875 L 63.683594 37.984375 C 63.683594 37.324219 63.992188 37.023438 64.375 37.023438 C 64.695312 37.023438 64.917969 37.3125 64.917969 37.726562 L 64.917969 40.96875 L 66.84375 40.96875 L 66.84375 37.59375 C 66.84375 36.121094 66.25 35.351562 65.128906 35.351562 Z M 65.132812 35.351562 " fill-opacity="1" fill-rule="nonzero"/><path fill="#000000" d="M 56.714844 35.855469 C 56.308594 35.855469 55.984375 35.796875 55.75 35.679688 L 55.75 40.96875 L 57.671875 40.96875 L 57.671875 35.679688 C 57.421875 35.789062 57.125 35.855469 56.714844 35.855469 Z M 56.714844 35.855469 " fill-opacity="1" fill-rule="nonzero"/><path fill="#000000" d="M 56.703125 33.902344 C 55.910156 33.902344 55.492188 34.25 55.492188 34.648438 C 55.492188 35.078125 55.988281 35.394531 56.703125 35.394531 C 57.421875 35.394531 57.917969 35.078125 57.917969 34.648438 C 57.917969 34.25 57.5 33.902344 56.703125 33.902344 Z M 56.703125 33.902344 " fill-opacity="1" fill-rule="nonzero"/><path fill="#000000" d="M 39.679688 35.855469 C 39.273438 35.855469 38.949219 35.796875 38.714844 35.679688 L 38.714844 40.96875 L 40.636719 40.96875 L 40.636719 35.679688 C 40.386719 35.789062 40.089844 35.855469 39.679688 35.855469 Z M 39.679688 35.855469 " fill-opacity="1" fill-rule="nonzero"/><path fill="#000000" d="M 39.667969 33.902344 C 38.875 33.902344 38.457031 34.25 38.457031 34.648438 C 38.457031 35.078125 38.949219 35.394531 39.667969 35.394531 C 40.386719 35.394531 40.878906 35.078125 40.878906 34.648438 C 40.878906 34.25 40.464844 33.902344 39.667969 33.902344 Z M 39.667969 33.902344 " fill-opacity="1" fill-rule="nonzero"/></svg>