<svg xmlns="http://www.w3.org/2000/svg" xmlns:xlink="http://www.w3.org/1999/xlink" width="100" zoomAndPan="magnify" viewBox="0 0 75 74.999997" height="100" preserveAspectRatio="xMidYMid meet" version="1.0"><defs><clipPath id="8eed1cf838"><path d="M 44 36 L 71.441406 36 L 71.441406 57 L 44 57 Z M 44 36 " clip-rule="nonzero"/></clipPath><clipPath id="6064b2cebb"><path d="M 62 57 L 69 57 L 69 62.445312 L 62 62.445312 Z M 62 57 " clip-rule="nonzero"/></clipPath><clipPath id="6ff9f55a32"><path d="M 50 57 L 57 57 L 57 62.445312 L 50 62.445312 Z M 50 57 " clip-rule="nonzero"/></clipPath><clipPath id="9b03e76e81"><path d="M 3.941406 15.195312 L 62 15.195312 L 62 45 L 3.941406 45 Z M 3.941406 15.195312 " clip-rule="nonzero"/></clipPath></defs><path fill="#f2a625" d="M 23.375 50.105469 L 29.207031 50.105469 C 29.476562 50.105469 29.695312 49.886719 29.695312 49.617188 L 29.695312 23.273438 L 22.886719 27.988281 L 22.886719 49.617188 C 22.886719 49.886719 23.105469 50.105469 23.375 50.105469 Z M 23.375 50.105469 " fill-opacity="1" fill-rule="nonzero"/><path fill="#f2a625" d="M 32.851562 50.105469 L 38.679688 50.105469 C 38.949219 50.105469 39.167969 49.886719 39.167969 49.617188 L 39.167969 28.132812 L 32.363281 23.296875 L 32.363281 49.617188 C 32.363281 49.886719 32.582031 50.105469 32.851562 50.105469 Z M 32.851562 50.105469 " fill-opacity="1" fill-rule="nonzero"/><g clip-path="url(#8eed1cf838)"><path fill="#f2a625" d="M 69.503906 51.679688 L 70.511719 46.582031 L 71.683594 40.648438 C 71.738281 40.359375 71.664062 40.0625 71.476562 39.835938 C 71.292969 39.609375 71.011719 39.476562 70.71875 39.476562 L 50.515625 39.476562 L 50.453125 39.019531 C 50.34375 38.265625 49.980469 37.574219 49.429688 37.054688 C 49.398438 37.023438 49.363281 36.992188 49.328125 36.964844 C 49.273438 36.917969 49.222656 36.875 49.167969 36.832031 C 49.117188 36.792969 49.0625 36.757812 49.011719 36.71875 C 48.976562 36.699219 48.945312 36.675781 48.914062 36.65625 C 48.902344 36.648438 48.886719 36.640625 48.875 36.632812 C 48.351562 36.316406 47.75 36.144531 47.132812 36.144531 L 45.515625 36.144531 C 44.972656 36.144531 44.53125 36.585938 44.53125 37.128906 C 44.53125 37.570312 44.824219 37.941406 45.222656 38.066406 C 45.316406 38.097656 45.414062 38.113281 45.515625 38.113281 L 47.132812 38.113281 C 47.410156 38.113281 47.671875 38.195312 47.894531 38.34375 C 48.214844 38.554688 48.445312 38.898438 48.503906 39.300781 L 48.691406 40.597656 C 48.691406 40.601562 48.691406 40.601562 48.691406 40.601562 L 49.613281 46.996094 L 50.285156 51.632812 L 50.511719 53.210938 C 50.550781 53.484375 50.621094 53.746094 50.71875 54 C 50.929688 54.546875 51.273438 55.035156 51.722656 55.425781 C 52.167969 55.8125 52.699219 56.082031 53.269531 56.210938 C 53.535156 56.273438 53.808594 56.304688 54.085938 56.304688 L 68.6875 56.304688 C 68.757812 56.304688 68.824219 56.300781 68.886719 56.285156 C 69.335938 56.195312 69.671875 55.796875 69.671875 55.324219 C 69.671875 54.777344 69.234375 54.339844 68.691406 54.339844 L 54.085938 54.339844 C 53.996094 54.339844 53.910156 54.332031 53.824219 54.316406 C 53.523438 54.269531 53.242188 54.140625 53.007812 53.9375 C 52.914062 53.851562 52.824219 53.757812 52.753906 53.65625 C 52.597656 53.441406 52.496094 53.195312 52.457031 52.929688 L 52.394531 52.472656 L 68.539062 52.472656 C 69.007812 52.472656 69.410156 52.140625 69.503906 51.679688 Z M 67.730469 50.507812 L 52.109375 50.507812 L 51.472656 46.085938 L 50.800781 41.441406 L 69.519531 41.441406 L 68.558594 46.316406 Z M 67.730469 50.507812 " fill-opacity="1" fill-rule="nonzero"/></g><g clip-path="url(#6064b2cebb)"><path fill="#f2a625" d="M 66.382812 57.117188 C 66.144531 57.050781 65.894531 57.015625 65.636719 57.015625 C 64.132812 57.015625 62.910156 58.238281 62.910156 59.742188 C 62.910156 60.988281 63.746094 62.039062 64.890625 62.367188 C 65.128906 62.433594 65.378906 62.46875 65.636719 62.46875 C 67.140625 62.46875 68.363281 61.246094 68.363281 59.742188 C 68.363281 58.496094 67.523438 57.445312 66.382812 57.117188 Z M 64.875 59.742188 C 64.875 59.324219 65.214844 58.984375 65.636719 58.984375 C 65.714844 58.984375 65.789062 58.996094 65.859375 59.015625 C 66.171875 59.113281 66.394531 59.402344 66.394531 59.742188 C 66.394531 60.160156 66.054688 60.5 65.636719 60.5 C 65.558594 60.5 65.480469 60.488281 65.410156 60.46875 C 65.101562 60.371094 64.875 60.082031 64.875 59.742188 Z M 64.875 59.742188 " fill-opacity="1" fill-rule="nonzero"/></g><path fill="#f2a625" d="M 45.515625 34.996094 L 47.132812 34.996094 C 47.652344 34.996094 48.160156 35.085938 48.640625 35.253906 L 48.640625 27.871094 L 43.839844 31.453125 L 41.835938 30.03125 L 41.835938 49.617188 C 41.835938 49.886719 42.054688 50.105469 42.324219 50.105469 L 48.15625 50.105469 C 48.425781 50.105469 48.640625 49.886719 48.640625 49.617188 L 48.640625 48.3125 L 47.367188 39.464844 C 47.351562 39.351562 47.246094 39.261719 47.132812 39.261719 L 45.515625 39.261719 C 44.339844 39.261719 43.382812 38.304688 43.382812 37.128906 C 43.382812 35.953125 44.339844 34.996094 45.515625 34.996094 Z M 45.515625 34.996094 " fill-opacity="1" fill-rule="nonzero"/><path fill="#f2a625" d="M 51.480469 38.324219 L 58.117188 38.324219 L 58.117188 20.800781 L 51.3125 25.878906 L 51.3125 37.820312 C 51.378906 37.984375 51.433594 38.152344 51.480469 38.324219 Z M 51.480469 38.324219 " fill-opacity="1" fill-rule="nonzero"/><g clip-path="url(#6ff9f55a32)"><path fill="#f2a625" d="M 53.683594 57.015625 C 53.472656 57.015625 53.265625 57.039062 53.066406 57.085938 C 51.859375 57.363281 50.957031 58.449219 50.957031 59.742188 C 50.957031 61.246094 52.179688 62.46875 53.683594 62.46875 C 53.917969 62.46875 54.144531 62.4375 54.363281 62.382812 C 54.375 62.378906 54.390625 62.375 54.402344 62.371094 C 54.410156 62.371094 54.417969 62.367188 54.429688 62.367188 C 54.785156 62.265625 55.109375 62.09375 55.390625 61.867188 C 56.011719 61.363281 56.410156 60.597656 56.410156 59.742188 C 56.410156 59.164062 56.226562 58.628906 55.917969 58.1875 C 55.425781 57.480469 54.609375 57.015625 53.683594 57.015625 Z M 53.871094 60.476562 C 53.863281 60.480469 53.855469 60.480469 53.847656 60.484375 C 53.84375 60.484375 53.839844 60.484375 53.835938 60.488281 C 53.785156 60.496094 53.734375 60.5 53.683594 60.5 C 53.261719 60.5 52.921875 60.160156 52.921875 59.742188 C 52.921875 59.375 53.183594 59.070312 53.527344 59 C 53.578125 58.988281 53.628906 58.984375 53.683594 58.984375 C 53.9375 58.984375 54.160156 59.109375 54.300781 59.300781 C 54.390625 59.425781 54.441406 59.578125 54.441406 59.742188 C 54.441406 59.96875 54.339844 60.171875 54.183594 60.3125 C 54.097656 60.390625 53.988281 60.449219 53.871094 60.476562 Z M 53.871094 60.476562 " fill-opacity="1" fill-rule="nonzero"/></g><path fill="#f2a625" d="M 49.148438 51.8125 L 49.144531 51.800781 L 49.144531 51.789062 L 22.886719 51.789062 L 22.886719 53.757812 L 49.445312 53.757812 C 49.414062 53.632812 49.390625 53.503906 49.375 53.375 Z M 49.148438 51.8125 " fill-opacity="1" fill-rule="nonzero"/><g clip-path="url(#9b03e76e81)"><path fill="#f2a625" d="M 18.546875 36.109375 C 17.777344 35.339844 16.878906 34.730469 15.882812 34.300781 C 16.960938 33.359375 17.644531 31.972656 17.644531 30.429688 C 17.644531 30.183594 17.628906 29.945312 17.59375 29.710938 L 31.085938 20.421875 L 43.917969 29.542969 L 57.871094 19.132812 L 59.148438 20.84375 C 59.292969 21.039062 59.601562 20.992188 59.679688 20.757812 L 61.425781 15.605469 C 61.496094 15.40625 61.339844 15.195312 61.125 15.203125 L 55.691406 15.414062 C 55.445312 15.425781 55.3125 15.707031 55.460938 15.902344 L 56.695312 17.558594 L 43.890625 27.109375 L 31.105469 18.019531 L 16.914062 27.789062 C 16.015625 26.289062 14.375 25.285156 12.5 25.285156 C 9.664062 25.285156 7.355469 27.59375 7.355469 30.429688 C 7.355469 31.972656 8.039062 33.359375 9.117188 34.300781 C 8.121094 34.730469 7.226562 35.339844 6.453125 36.109375 C 5.667969 36.894531 5.054688 37.808594 4.621094 38.828125 C 4.175781 39.882812 3.949219 41.003906 3.949219 42.15625 L 3.949219 43.429688 C 3.949219 43.972656 4.390625 44.414062 4.933594 44.414062 L 20.070312 44.414062 C 20.613281 44.414062 21.050781 43.972656 21.050781 43.429688 L 21.050781 42.15625 C 21.050781 41.003906 20.824219 39.882812 20.378906 38.828125 C 19.949219 37.808594 19.332031 36.894531 18.546875 36.109375 Z M 12.5 27.25 C 14.253906 27.25 15.679688 28.675781 15.679688 30.429688 C 15.679688 32.179688 14.253906 33.605469 12.5 33.605469 C 10.75 33.605469 9.324219 32.179688 9.324219 30.429688 C 9.324219 28.675781 10.75 27.25 12.5 27.25 Z M 19.085938 42.445312 L 5.917969 42.445312 L 5.917969 42.15625 C 5.917969 40.398438 6.601562 38.746094 7.847656 37.5 C 9.089844 36.257812 10.742188 35.574219 12.5 35.574219 C 14.261719 35.574219 15.914062 36.257812 17.15625 37.5 C 18.402344 38.746094 19.085938 40.398438 19.085938 42.15625 Z M 19.085938 42.445312 " fill-opacity="1" fill-rule="nonzero"/></g></svg>