<svg xmlns="http://www.w3.org/2000/svg" xmlns:xlink="http://www.w3.org/1999/xlink" width="100" zoomAndPan="magnify" viewBox="0 0 75 74.999997" height="100" preserveAspectRatio="xMidYMid meet" version="1.0"><defs><clipPath id="1d9866144f"><path d="M 3.847656 25.75 L 27 25.75 L 27 49 L 3.847656 49 Z M 3.847656 25.75 " clip-rule="nonzero"/></clipPath><clipPath id="560db19443"><path d="M 34 32 L 71.347656 32 L 71.347656 43 L 34 43 Z M 34 32 " clip-rule="nonzero"/></clipPath></defs><g clip-path="url(#1d9866144f)"><path fill="#ffffff" d="M 5.269531 26.820312 L 18.214844 25.859375 C 19.785156 25.710938 20.199219 25.820312 21.207031 26.523438 L 25.359375 29.402344 C 26.035156 29.882812 26.257812 30.03125 26.257812 30.585938 L 26.257812 46.347656 C 26.257812 47.34375 25.882812 47.933594 24.613281 48.007812 L 9.570312 48.894531 C 8.597656 48.929688 8.148438 48.820312 7.664062 48.191406 L 4.632812 44.316406 C 4.070312 43.578125 3.847656 43.0625 3.847656 42.433594 L 3.847656 28.40625 C 3.847656 27.59375 4.21875 26.894531 5.269531 26.820312 Z M 5.269531 26.820312 " fill-opacity="1" fill-rule="nonzero"/><path fill="#000000" d="M 18.214844 25.859375 L 5.269531 26.820312 C 4.21875 26.894531 3.847656 27.59375 3.847656 28.40625 L 3.847656 42.433594 C 3.847656 43.0625 4.070312 43.617188 4.632812 44.316406 L 7.664062 48.230469 C 8.148438 48.859375 8.636719 49.003906 9.570312 48.929688 L 24.613281 48.046875 C 25.882812 47.972656 26.257812 47.382812 26.257812 46.382812 L 26.257812 30.585938 C 26.257812 30.066406 26.070312 29.917969 25.4375 29.476562 C 25.398438 29.441406 25.359375 29.441406 25.324219 29.402344 L 21.207031 26.558594 C 20.234375 25.820312 19.824219 25.75 18.214844 25.859375 Z M 9.90625 30.324219 C 8.671875 30.398438 8.410156 30.4375 7.699219 29.847656 L 5.941406 28.480469 C 5.753906 28.296875 5.828125 28.074219 6.316406 28.035156 L 18.777344 27.152344 C 19.824219 27.078125 20.347656 27.410156 20.757812 27.742188 L 22.890625 29.253906 C 23.003906 29.292969 23.226562 29.550781 22.929688 29.550781 L 10.058594 30.324219 Z M 8.484375 46.238281 L 8.484375 32.835938 C 8.484375 32.246094 8.671875 31.988281 9.195312 31.949219 L 23.976562 31.101562 C 24.460938 31.0625 24.6875 31.359375 24.6875 31.949219 L 24.6875 45.238281 C 24.6875 45.832031 24.574219 46.308594 23.789062 46.347656 L 9.644531 47.160156 C 8.859375 47.234375 8.484375 46.9375 8.484375 46.238281 Z M 22.441406 33.574219 C 22.515625 33.980469 22.441406 34.386719 22.03125 34.421875 L 21.355469 34.570312 L 21.355469 44.464844 C 20.757812 44.796875 20.234375 44.945312 19.785156 44.945312 C 19.074219 44.945312 18.886719 44.722656 18.328125 44.058594 L 13.835938 37.117188 L 13.835938 43.800781 L 15.257812 44.132812 C 15.257812 44.132812 15.257812 44.945312 14.136719 44.945312 L 10.992188 45.128906 C 10.917969 44.945312 10.992188 44.5 11.292969 44.425781 L 12.117188 44.207031 L 12.117188 35.347656 L 10.992188 35.234375 C 10.917969 34.828125 11.140625 34.238281 11.777344 34.203125 L 15.144531 33.980469 L 19.785156 40.996094 L 19.785156 34.792969 L 18.589844 34.644531 C 18.511719 34.164062 18.851562 33.796875 19.300781 33.757812 Z M 22.441406 33.574219 " fill-opacity="1" fill-rule="evenodd"/></g><g clip-path="url(#560db19443)"><path fill="#000000" d="M 36.210938 42.210938 L 36.210938 36.121094 L 36.324219 36.121094 L 40.777344 42.210938 L 42.199219 42.210938 L 42.199219 33.242188 L 40.625 33.242188 L 40.625 39.332031 L 40.515625 39.332031 L 36.0625 33.242188 L 34.640625 33.242188 L 34.640625 42.210938 Z M 46.578125 42.324219 C 48.632812 42.324219 49.867188 40.996094 49.867188 38.78125 C 49.867188 36.601562 48.597656 35.234375 46.578125 35.234375 C 44.519531 35.234375 43.285156 36.566406 43.285156 38.78125 C 43.246094 40.996094 44.519531 42.324219 46.578125 42.324219 Z M 46.578125 41.03125 C 45.492188 41.03125 44.855469 40.21875 44.855469 38.78125 C 44.855469 37.375 45.492188 36.527344 46.578125 36.527344 C 47.660156 36.527344 48.296875 37.339844 48.296875 38.78125 C 48.261719 40.21875 47.660156 41.03125 46.578125 41.03125 Z M 51.289062 33.757812 L 51.289062 35.457031 L 50.207031 35.457031 L 50.207031 36.675781 L 51.289062 36.675781 L 51.289062 40.367188 C 51.289062 41.695312 51.925781 42.210938 53.5 42.210938 C 53.796875 42.210938 54.097656 42.175781 54.320312 42.140625 L 54.320312 40.957031 C 54.132812 40.996094 54.023438 40.996094 53.796875 40.996094 C 53.160156 40.996094 52.863281 40.699219 52.863281 40.035156 L 52.863281 36.710938 L 54.320312 36.710938 L 54.320312 35.492188 L 52.863281 35.492188 L 52.863281 33.796875 L 51.289062 33.796875 Z M 55.257812 42.210938 L 56.828125 42.210938 L 56.828125 35.421875 L 55.257812 35.421875 Z M 56.042969 34.277344 C 56.566406 34.277344 56.976562 33.871094 56.976562 33.351562 C 56.976562 32.835938 56.566406 32.429688 56.042969 32.429688 C 55.519531 32.429688 55.105469 32.835938 55.105469 33.351562 C 55.105469 33.871094 55.519531 34.277344 56.042969 34.277344 Z M 61.09375 42.324219 C 63.152344 42.324219 64.386719 40.996094 64.386719 38.78125 C 64.386719 36.601562 63.113281 35.234375 61.09375 35.234375 C 59.035156 35.234375 57.800781 36.566406 57.800781 38.78125 C 57.765625 40.996094 59.035156 42.324219 61.09375 42.324219 Z M 61.09375 41.03125 C 60.007812 41.03125 59.371094 40.21875 59.371094 38.78125 C 59.371094 37.375 60.007812 36.527344 61.09375 36.527344 C 62.179688 36.527344 62.816406 37.339844 62.816406 38.78125 C 62.777344 40.21875 62.179688 41.03125 61.09375 41.03125 Z M 65.320312 42.210938 L 66.894531 42.210938 L 66.894531 38.226562 C 66.894531 37.230469 67.492188 36.601562 68.390625 36.601562 C 69.324219 36.601562 69.773438 37.117188 69.773438 38.152344 L 69.773438 42.175781 L 71.347656 42.175781 L 71.347656 37.78125 C 71.347656 36.160156 70.523438 35.234375 68.988281 35.234375 C 67.980469 35.234375 67.269531 35.714844 66.929688 36.453125 L 66.820312 36.453125 L 66.820312 35.421875 L 65.320312 35.421875 Z M 65.320312 42.210938 " fill-opacity="1" fill-rule="nonzero"/></g></svg>