<svg xmlns="http://www.w3.org/2000/svg" xmlns:xlink="http://www.w3.org/1999/xlink" width="100" zoomAndPan="magnify" viewBox="0 0 75 74.999997" height="100" preserveAspectRatio="xMidYMid meet" version="1.0"><defs><clipPath id="4333fdf38a"><path d="M 21 10.398438 L 64 10.398438 L 64 53 L 21 53 Z M 21 10.398438 " clip-rule="nonzero"/></clipPath><clipPath id="82c6dc0659"><path d="M 7.5 45 L 29 45 L 29 66.648438 L 7.5 66.648438 Z M 7.5 45 " clip-rule="nonzero"/></clipPath></defs><g clip-path="url(#4333fdf38a)"><path fill="#f2a625" d="M 42.804688 52.046875 C 37.230469 52.046875 31.984375 49.859375 28.046875 45.925781 C 19.960938 37.835938 19.960938 24.609375 28.046875 16.523438 C 31.984375 12.585938 37.230469 10.402344 42.804688 10.402344 C 48.378906 10.402344 53.515625 12.585938 57.449219 16.523438 C 65.648438 24.609375 65.648438 37.835938 57.449219 45.925781 C 53.515625 49.859375 48.378906 52.046875 42.804688 52.046875 Z M 42.804688 48.328125 C 38.214844 48.328125 33.839844 46.582031 30.671875 43.300781 C 23.894531 36.632812 23.894531 25.8125 30.671875 19.035156 C 33.839844 15.867188 38.214844 14.007812 42.804688 14.007812 C 47.394531 14.007812 51.65625 15.867188 54.9375 19.035156 C 61.605469 25.8125 61.605469 36.632812 54.9375 43.300781 C 51.65625 46.582031 47.394531 48.328125 42.804688 48.328125 Z M 42.804688 48.328125 " fill-opacity="1" fill-rule="evenodd"/></g><path fill="#f2a625" d="M 27.175781 50.84375 C 26.957031 50.84375 26.847656 50.84375 26.738281 50.625 L 23.347656 47.238281 C 23.128906 47.128906 23.128906 47.019531 23.128906 46.800781 C 23.128906 46.691406 23.128906 46.472656 23.347656 46.363281 L 26.519531 43.191406 C 26.628906 43.082031 26.738281 42.972656 26.957031 42.972656 C 27.175781 42.972656 27.285156 43.082031 27.394531 43.300781 C 27.832031 43.738281 28.265625 44.285156 28.703125 44.722656 C 28.8125 44.832031 28.921875 44.941406 29.03125 44.941406 C 29.03125 45.050781 29.140625 45.160156 29.25 45.269531 C 29.6875 45.707031 30.234375 46.144531 30.671875 46.582031 C 30.890625 46.691406 31 46.800781 31 47.019531 C 31 47.238281 30.890625 47.347656 30.78125 47.5625 L 27.613281 50.625 C 27.503906 50.84375 27.285156 50.84375 27.175781 50.84375 Z M 27.175781 50.84375 " fill-opacity="1" fill-rule="evenodd"/><g clip-path="url(#82c6dc0659)"><path fill="#f2a625" d="M 14.167969 66.363281 C 13.730469 66.363281 13.292969 66.144531 12.964844 65.816406 L 8.15625 61.007812 C 7.5 60.351562 7.5 59.257812 8.15625 58.605469 L 10.015625 56.746094 L 17.335938 63.960938 L 15.371094 65.816406 C 15.042969 66.144531 14.605469 66.363281 14.167969 66.363281 Z M 10.886719 55.761719 L 21.054688 45.597656 C 21.382812 45.269531 21.820312 45.160156 22.253906 45.160156 C 22.691406 45.160156 23.128906 45.269531 23.457031 45.597656 L 28.375 50.515625 C 28.703125 50.84375 28.8125 51.28125 28.8125 51.71875 C 28.8125 52.15625 28.703125 52.59375 28.375 52.921875 L 18.210938 63.085938 Z M 10.886719 55.761719 " fill-opacity="1" fill-rule="evenodd"/></g><path fill="#f2a625" d="M 37.558594 42.316406 L 33.730469 42.316406 C 33.296875 42.316406 33.078125 41.988281 33.078125 41.660156 L 33.078125 31.058594 C 33.078125 30.621094 33.296875 30.402344 33.730469 30.402344 L 37.558594 30.402344 C 37.996094 30.402344 38.214844 30.621094 38.214844 31.058594 L 38.214844 41.660156 C 38.214844 41.988281 37.996094 42.316406 37.558594 42.316406 Z M 52.09375 42.316406 L 48.160156 42.316406 C 47.832031 42.316406 47.503906 41.988281 47.503906 41.660156 L 47.503906 31.058594 C 47.503906 30.621094 47.832031 30.402344 48.160156 30.402344 L 52.09375 30.402344 C 52.421875 30.402344 52.75 30.621094 52.75 31.058594 L 52.75 41.660156 C 52.75 41.988281 52.421875 42.316406 52.09375 42.316406 Z M 44.882812 42.316406 L 40.945312 42.316406 C 40.507812 42.316406 40.289062 41.988281 40.289062 41.660156 L 40.289062 27.234375 C 40.289062 26.90625 40.507812 26.578125 40.945312 26.578125 L 44.882812 26.578125 C 45.210938 26.578125 45.535156 26.90625 45.535156 27.234375 L 45.535156 41.660156 C 45.535156 41.988281 45.210938 42.316406 44.882812 42.316406 Z M 44.882812 42.316406 " fill-opacity="1" fill-rule="evenodd"/><path fill="#f2a625" d="M 36.027344 26.359375 C 35.808594 26.359375 35.589844 26.25 35.480469 26.140625 C 35.261719 25.8125 35.261719 25.375 35.589844 25.15625 L 41.601562 20.238281 C 41.820312 20.019531 42.257812 20.019531 42.476562 20.347656 C 42.695312 20.566406 42.695312 21.003906 42.367188 21.222656 L 36.464844 26.140625 C 36.355469 26.25 36.136719 26.359375 36.027344 26.359375 Z M 49.800781 26.03125 C 49.582031 26.03125 49.472656 26.03125 49.363281 25.921875 L 43.679688 21.222656 C 43.351562 21.003906 43.351562 20.566406 43.570312 20.347656 C 43.789062 20.019531 44.226562 20.019531 44.445312 20.238281 L 50.128906 24.9375 C 50.457031 25.15625 50.457031 25.59375 50.238281 25.8125 C 50.128906 26.03125 49.910156 26.03125 49.800781 26.03125 Z M 49.800781 26.03125 " fill-opacity="1" fill-rule="evenodd"/><path fill="#f2a625" d="M 34.824219 28.875 C 33.625 28.875 32.640625 27.890625 32.640625 26.6875 C 32.640625 25.484375 33.625 24.5 34.824219 24.5 C 36.027344 24.5 37.011719 25.484375 37.011719 26.6875 C 37.011719 27.890625 36.027344 28.875 34.824219 28.875 Z M 50.894531 28.546875 C 49.691406 28.546875 48.707031 27.5625 48.707031 26.359375 C 48.707031 25.15625 49.691406 24.171875 50.894531 24.171875 C 52.09375 24.171875 53.078125 25.15625 53.078125 26.359375 C 53.078125 27.5625 52.09375 28.546875 50.894531 28.546875 Z M 43.023438 21.769531 C 41.820312 21.769531 40.835938 20.785156 40.835938 19.582031 C 40.835938 18.378906 41.820312 17.398438 43.023438 17.398438 C 44.226562 17.398438 45.210938 18.378906 45.210938 19.582031 C 45.210938 20.785156 44.226562 21.769531 43.023438 21.769531 Z M 43.023438 21.769531 " fill-opacity="1" fill-rule="evenodd"/></svg>