<svg xmlns="http://www.w3.org/2000/svg" xmlns:xlink="http://www.w3.org/1999/xlink" width="100" zoomAndPan="magnify" viewBox="0 0 75 74.999997" height="100" preserveAspectRatio="xMidYMid meet" version="1.0"><path fill="#635bff" d="M 66.347656 40.535156 C 66.347656 36.398438 64.359375 33.136719 60.5625 33.136719 C 56.746094 33.136719 54.4375 36.398438 54.4375 40.5 C 54.4375 45.363281 57.164062 47.816406 61.074219 47.816406 C 62.980469 47.816406 64.421875 47.382812 65.511719 46.769531 L 65.511719 43.539062 C 64.421875 44.085938 63.171875 44.425781 61.585938 44.425781 C 60.03125 44.425781 58.652344 43.875 58.476562 41.972656 L 66.3125 41.972656 C 66.3125 41.761719 66.347656 40.921875 66.347656 40.535156 Z M 58.429688 39 C 58.429688 37.175781 59.535156 36.414062 60.542969 36.414062 C 61.523438 36.414062 62.5625 37.175781 62.5625 39 Z M 58.429688 39 " fill-opacity="1" fill-rule="evenodd"/><path fill="#635bff" d="M 48.253906 33.136719 C 46.683594 33.136719 45.671875 33.878906 45.113281 34.394531 L 44.902344 33.394531 L 41.378906 33.394531 L 41.378906 52.226562 L 45.382812 51.371094 L 45.402344 46.800781 C 45.976562 47.21875 46.828125 47.816406 48.238281 47.816406 C 51.105469 47.816406 53.71875 45.492188 53.71875 40.371094 C 53.703125 35.6875 51.058594 33.136719 48.253906 33.136719 Z M 47.292969 44.265625 C 46.347656 44.265625 45.785156 43.925781 45.402344 43.503906 L 45.382812 37.511719 C 45.800781 37.042969 46.378906 36.722656 47.292969 36.722656 C 48.75 36.722656 49.757812 38.371094 49.757812 40.484375 C 49.757812 42.648438 48.765625 44.265625 47.292969 44.265625 Z M 47.292969 44.265625 " fill-opacity="1" fill-rule="evenodd"/><path fill="#635bff" d="M 35.867188 32.183594 L 39.886719 31.3125 L 39.886719 28.03125 L 35.867188 28.886719 Z M 35.867188 32.183594 " fill-opacity="1" fill-rule="evenodd"/><path fill="#635bff" d="M 35.867188 33.410156 L 39.886719 33.410156 L 39.886719 47.542969 L 35.867188 47.542969 Z M 35.867188 33.410156 " fill-opacity="1" fill-rule="evenodd"/><path fill="#635bff" d="M 31.554688 34.605469 L 31.296875 33.410156 L 27.835938 33.410156 L 27.835938 47.542969 L 31.84375 47.542969 L 31.84375 37.964844 C 32.789062 36.722656 34.390625 36.949219 34.886719 37.125 L 34.886719 33.410156 C 34.375 33.214844 32.5 32.863281 31.554688 34.605469 Z M 31.554688 34.605469 " fill-opacity="1" fill-rule="evenodd"/><path fill="#635bff" d="M 23.542969 29.90625 L 19.632812 30.746094 L 19.617188 43.683594 C 19.617188 46.074219 21.394531 47.835938 23.765625 47.835938 C 25.082031 47.835938 26.042969 47.59375 26.570312 47.300781 L 26.570312 44.023438 C 26.058594 44.230469 23.527344 44.976562 23.527344 42.585938 L 23.527344 36.851562 L 26.570312 36.851562 L 26.570312 33.410156 L 23.527344 33.410156 Z M 23.542969 29.90625 " fill-opacity="1" fill-rule="evenodd"/><path fill="#635bff" d="M 12.707031 37.511719 C 12.707031 36.882812 13.222656 36.640625 14.070312 36.640625 C 15.289062 36.640625 16.828125 37.011719 18.042969 37.675781 L 18.042969 33.878906 C 16.714844 33.347656 15.402344 33.136719 14.070312 33.136719 C 10.816406 33.136719 8.652344 34.847656 8.652344 37.707031 C 8.652344 42.164062 14.742188 41.453125 14.742188 43.375 C 14.742188 44.121094 14.101562 44.363281 13.207031 44.363281 C 11.875 44.363281 10.175781 43.8125 8.832031 43.070312 L 8.832031 46.914062 C 10.320312 47.558594 11.828125 47.835938 13.207031 47.835938 C 16.539062 47.835938 18.832031 46.171875 18.832031 43.28125 C 18.8125 38.464844 12.707031 39.320312 12.707031 37.511719 Z M 12.707031 37.511719 " fill-opacity="1" fill-rule="evenodd"/></svg>