<svg xmlns="http://www.w3.org/2000/svg" xmlns:xlink="http://www.w3.org/1999/xlink" width="100" zoomAndPan="magnify" viewBox="0 0 75 74.999997" height="100" preserveAspectRatio="xMidYMid meet" version="1.0"><defs><clipPath id="36e7a37d27"><path d="M 2.195312 2.195312 L 72.695312 2.195312 L 72.695312 72.695312 L 2.195312 72.695312 Z M 2.195312 2.195312 " clip-rule="nonzero"/></clipPath></defs><g clip-path="url(#36e7a37d27)"><path fill="#f2a625" d="M 62.460938 12.535156 C 55.792969 5.867188 46.925781 2.195312 37.496094 2.195312 C 28.066406 2.195312 19.203125 5.867188 12.535156 12.535156 C 5.867188 19.203125 2.195312 28.066406 2.195312 37.496094 C 2.195312 46.925781 5.867188 55.792969 12.535156 62.460938 C 19.203125 69.128906 28.066406 72.800781 37.496094 72.800781 C 46.925781 72.800781 55.792969 69.128906 62.460938 62.460938 C 69.128906 55.792969 72.800781 46.925781 72.800781 37.496094 C 72.800781 28.066406 69.128906 19.203125 62.460938 12.535156 Z M 6.097656 37.496094 C 6.097656 33.566406 6.828125 29.800781 8.152344 26.328125 L 20.851562 26.328125 C 20.28125 29.882812 19.984375 33.644531 19.984375 37.496094 C 19.984375 41.21875 20.261719 44.859375 20.792969 48.304688 L 8.015625 48.304688 C 6.777344 44.933594 6.097656 41.292969 6.097656 37.496094 Z M 23.890625 37.496094 C 23.890625 33.617188 24.203125 29.851562 24.804688 26.328125 L 35.542969 26.328125 L 35.542969 48.304688 L 24.746094 48.304688 C 24.183594 44.886719 23.890625 41.242188 23.890625 37.496094 Z M 46.730469 14.738281 C 47.800781 17.035156 48.6875 19.625 49.378906 22.425781 L 39.449219 22.425781 L 39.449219 6.460938 C 42.097656 7.429688 44.671875 10.328125 46.730469 14.738281 Z M 35.542969 6.460938 L 35.542969 22.425781 L 25.613281 22.425781 C 26.304688 19.625 27.191406 17.035156 28.261719 14.738281 C 30.320312 10.328125 32.898438 7.429688 35.542969 6.460938 Z M 35.542969 52.210938 L 35.542969 68.53125 C 32.898438 67.5625 30.320312 64.664062 28.261719 60.253906 C 27.148438 57.859375 26.230469 55.148438 25.527344 52.210938 Z M 39.449219 68.53125 L 39.449219 52.210938 L 49.464844 52.210938 C 48.761719 55.148438 47.847656 57.859375 46.730469 60.253906 C 44.671875 64.664062 42.097656 67.5625 39.449219 68.53125 Z M 39.449219 48.304688 L 39.449219 26.328125 L 50.1875 26.328125 C 50.789062 29.851562 51.105469 33.617188 51.105469 37.496094 C 51.105469 41.242188 50.8125 44.886719 50.25 48.304688 Z M 54.140625 26.328125 L 66.839844 26.328125 C 68.164062 29.800781 68.894531 33.566406 68.894531 37.496094 C 68.894531 41.292969 68.21875 44.933594 66.976562 48.304688 L 54.199219 48.304688 C 54.730469 44.859375 55.007812 41.21875 55.007812 37.496094 C 55.007812 33.644531 54.710938 29.882812 54.140625 26.328125 Z M 65.03125 22.425781 L 53.386719 22.425781 C 52.609375 19.015625 51.5625 15.863281 50.269531 13.089844 C 49.265625 10.9375 48.144531 9.085938 46.929688 7.546875 C 54.699219 10 61.171875 15.398438 65.03125 22.425781 Z M 28.066406 7.546875 C 26.851562 9.085938 25.726562 10.9375 24.726562 13.089844 C 23.429688 15.863281 22.382812 19.015625 21.605469 22.425781 L 9.960938 22.425781 C 13.820312 15.398438 20.296875 10 28.066406 7.546875 Z M 9.765625 52.210938 L 21.523438 52.210938 C 22.308594 55.757812 23.386719 59.035156 24.726562 61.902344 C 25.726562 64.054688 26.851562 65.90625 28.066406 67.445312 C 20.164062 64.953125 13.605469 59.414062 9.765625 52.210938 Z M 46.929688 67.445312 C 48.144531 65.90625 49.265625 64.054688 50.269531 61.902344 C 51.605469 59.035156 52.683594 55.757812 53.46875 52.210938 L 65.226562 52.210938 C 61.386719 59.414062 54.828125 64.953125 46.929688 67.445312 Z M 46.929688 67.445312 " fill-opacity="1" fill-rule="nonzero"/></g></svg>