<svg xmlns="http://www.w3.org/2000/svg" xmlns:xlink="http://www.w3.org/1999/xlink" width="100" zoomAndPan="magnify" viewBox="0 0 75 74.999997" height="100" preserveAspectRatio="xMidYMid meet" version="1.0"><defs><clipPath id="24af65c0cc"><path d="M 9.332031 31.941406 L 61.082031 31.941406 L 61.082031 43.941406 L 9.332031 43.941406 Z M 9.332031 31.941406 " clip-rule="nonzero"/></clipPath></defs><g clip-path="url(#24af65c0cc)"><path fill="#0b5cff" d="M 20.195312 43.753906 L 11.003906 43.753906 C 10.390625 43.753906 9.828125 43.433594 9.535156 42.878906 C 9.21875 42.230469 9.332031 41.472656 9.828125 40.984375 L 16.21875 34.457031 L 11.632812 34.457031 C 10.371094 34.457031 9.351562 33.394531 9.351562 32.125 L 17.824219 32.125 C 18.433594 32.125 19 32.449219 19.292969 33 C 19.609375 33.648438 19.496094 34.410156 19 34.894531 L 12.605469 41.425781 L 17.914062 41.425781 C 19.179688 41.425781 20.195312 42.484375 20.195312 43.753906 Z M 56.613281 31.941406 C 55.300781 31.941406 54.105469 32.515625 53.289062 33.464844 C 52.476562 32.539062 51.28125 31.941406 49.96875 31.941406 C 47.53125 31.941406 45.519531 34.0625 45.519531 36.554688 L 45.519531 43.753906 C 46.785156 43.753906 47.800781 42.71875 47.800781 41.425781 L 47.800781 36.53125 C 47.800781 35.332031 48.707031 34.316406 49.878906 34.269531 C 51.121094 34.226562 52.140625 35.238281 52.140625 36.484375 L 52.140625 41.425781 C 52.140625 42.71875 53.15625 43.753906 54.421875 43.753906 L 54.421875 36.53125 C 54.421875 35.332031 55.324219 34.316406 56.5 34.269531 C 57.742188 34.226562 58.757812 35.238281 58.757812 36.484375 L 58.757812 41.425781 C 58.757812 42.71875 59.773438 43.753906 61.039062 43.753906 L 61.039062 36.554688 C 61.0625 34.0625 59.050781 31.941406 56.613281 31.941406 Z M 31.71875 37.941406 C 31.71875 41.238281 29.074219 43.941406 25.84375 43.941406 C 22.589844 43.941406 19.96875 41.238281 19.96875 37.941406 C 19.96875 34.640625 22.613281 31.941406 25.84375 31.941406 C 29.074219 31.941406 31.71875 34.640625 31.71875 37.941406 Z M 29.4375 37.941406 C 29.4375 35.910156 27.832031 34.269531 25.84375 34.269531 C 23.855469 34.269531 22.25 35.910156 22.25 37.941406 C 22.25 39.972656 23.855469 41.609375 25.84375 41.609375 C 27.832031 41.609375 29.4375 39.972656 29.4375 37.941406 Z M 44.390625 37.941406 C 44.390625 41.238281 41.746094 43.941406 38.515625 43.941406 C 35.265625 43.941406 32.644531 41.238281 32.644531 37.941406 C 32.644531 34.640625 35.285156 31.941406 38.515625 31.941406 C 41.746094 31.941406 44.390625 34.640625 44.390625 37.941406 Z M 42.109375 37.941406 C 42.109375 35.910156 40.503906 34.269531 38.515625 34.269531 C 36.527344 34.269531 34.925781 35.910156 34.925781 37.941406 C 34.925781 39.972656 36.527344 41.609375 38.515625 41.609375 C 40.503906 41.609375 42.109375 39.972656 42.109375 37.941406 Z M 42.109375 37.941406 " fill-opacity="1" fill-rule="nonzero"/></g></svg>